<svg width="40" height="40" viewBox="0 0 40 40" fill="none" xmlns="http://www.w3.org/2000/svg">
<g id="Work">
<g id="Iconly/Light-Outline/Work">
<g id="Work_2">
<path id="Combined-Shape" fillRule="evenodd" clipRule="evenodd" d="M35.4544 24.5592C36.1427 24.6108 36.6577 25.2125 36.6061 25.9008L36.2894 30.0825C36.0277 33.5325 33.1161 36.2342 29.6578 36.2342H10.3244C6.86609 36.2342 3.95442 33.5325 3.69275 30.0825L3.37609 25.9008C3.32442 25.2125 3.84109 24.6108 4.52942 24.5592C5.22109 24.5342 5.81775 25.0225 5.87109 25.7125L6.18609 29.8925C6.34942 32.0458 8.16609 33.7342 10.3244 33.7342H29.6578C31.8161 33.7342 33.6344 32.0458 33.7961 29.8925L34.1127 25.7125C34.1661 25.0225 34.7778 24.5325 35.4544 24.5592ZM22.1414 3.33398C24.6463 3.33398 26.7215 5.21109 27.0341 7.63236L30.3166 7.63382C33.8099 7.63382 36.6499 10.4822 36.6499 13.9855V19.7172C36.6499 20.1622 36.4132 20.5722 36.0316 20.7955C31.9177 23.2046 26.7064 24.6098 21.2408 24.7973L21.2414 27.795C21.2414 28.485 20.6814 29.045 19.9914 29.045C19.3014 29.045 18.7414 28.485 18.7414 27.795L18.7403 24.7977C13.2802 24.6119 8.06851 23.2065 3.95159 20.7955C3.56825 20.5722 3.33325 20.1622 3.33325 19.7172V13.9688C3.33325 10.4755 6.18159 7.63382 9.68325 7.63382L12.9488 7.63236C13.2613 5.21109 15.3365 3.33398 17.8414 3.33398H22.1414ZM30.3166 10.1338H9.68325C7.55992 10.1338 5.83325 11.8538 5.83325 13.9688V18.9888C9.78944 21.1384 14.777 22.3165 19.9682 22.3188L19.9914 22.3167L20.0099 22.3173L20.8035 22.3091C25.7132 22.1921 30.3968 21.0272 34.1499 18.9888V13.9855C34.1499 11.8605 32.4316 10.1338 30.3166 10.1338ZM22.1414 5.83398H17.8414C16.7192 5.83398 15.7719 6.59777 15.492 7.63278H24.4908C24.211 6.59777 23.2637 5.83398 22.1414 5.83398Z" fill="#808080"/>
</g>
</g>
</g>
</svg>
