<svg width="50" height="50" viewBox="0 0 50 50" fill="none" xmlns="http://www.w3.org/2000/svg">
<path d="M43.6667 49V6.33333C43.6667 3.38781 41.2789 1 38.3333 1H11.6667C8.72115 1 6.33333 3.38781 6.33333 6.33333V49M43.6667 49L49 48.9999M43.6667 49H30.3333M6.33333 49L1 48.9999M6.33333 49H19.6667M17 11.6666H19.6667M17 22.3333H19.6667M30.3333 11.6666H33M30.3333 22.3333H33M19.6667 49V35.6666C19.6667 34.1938 20.8606 32.9999 22.3333 32.9999H27.6667C29.1394 32.9999 30.3333 34.1938 30.3333 35.6666V49M19.6667 49H30.3333" stroke="#666666" strokeWidth="2" strokeLinecap="round" strokeLinejoin="round"/>
</svg>
