<svg width="14" height="14" viewBox="0 0 14 14" fill="none" xmlns="http://www.w3.org/2000/svg">
<path d="M11.6667 13V2.33333C11.6667 1.97971 11.5262 1.64057 11.2761 1.39052C11.0261 1.14048 10.687 1 10.3333 1H3.66667C3.31304 1 2.97391 1.14048 2.72386 1.39052C2.47381 1.64057 2.33333 1.97971 2.33333 2.33333V13M11.6667 13H13M11.6667 13H8.33333M2.33333 13H1M2.33333 13H5.66667M8.33333 13V9.66667C8.33333 9.48986 8.2631 9.32029 8.13807 9.19526C8.01305 9.07024 7.84348 9 7.66667 9H6.33333C6.15652 9 5.98695 9.07024 5.86193 9.19526C5.7369 9.32029 5.66667 9.48986 5.66667 9.66667V13M8.33333 13H5.66667M5 3.66667H5.66667M5 6.33333H5.66667M8.33333 3.66667H9M8.33333 6.33333H9" stroke="#333333" strokeLinecap="round" strokeLinejoin="round"/>
</svg>
