<svg width="8" height="6" viewBox="0 0 8 6" fill="none" xmlns="http://www.w3.org/2000/svg">
<path fillRule="evenodd" clipRule="evenodd" d="M0.234343 0.834815C0.384365 0.684838 0.587811 0.600586 0.799942 0.600586C1.01207 0.600586 1.21552 0.684838 1.36554 0.834815L3.99994 3.46922L6.63434 0.834815C6.78522 0.689089 6.98731 0.608453 7.19706 0.610276C7.40682 0.612098 7.60747 0.696234 7.7558 0.84456C7.90412 0.992887 7.98826 1.19354 7.99008 1.40329C7.9919 1.61305 7.91127 1.81513 7.76554 1.96601L4.56554 5.16602C4.41552 5.31599 4.21207 5.40024 3.99994 5.40024C3.78781 5.40024 3.58436 5.31599 3.43434 5.16602L0.234343 1.96601C0.0843658 1.81599 0.000113487 1.61255 0.000113487 1.40042C0.000113487 1.18828 0.0843658 0.984837 0.234343 0.834815Z" fill="#808080"/>
</svg>
