<svg width="20" height="20" viewBox="0 0 20 20" fill="none" xmlns="http://www.w3.org/2000/svg">
<path d="M14.1665 17.7077H5.83317C2.7915 17.7077 1.0415 15.9577 1.0415 12.916V7.08268C1.0415 4.04102 2.7915 2.29102 5.83317 2.29102H14.1665C17.2082 2.29102 18.9582 4.04102 18.9582 7.08268V12.916C18.9582 15.9577 17.2082 17.7077 14.1665 17.7077ZM5.83317 3.54102C3.44984 3.54102 2.2915 4.69935 2.2915 7.08268V12.916C2.2915 15.2993 3.44984 16.4577 5.83317 16.4577H14.1665C16.5498 16.4577 17.7082 15.2993 17.7082 12.916V7.08268C17.7082 4.69935 16.5498 3.54102 14.1665 3.54102H5.83317Z" fill="#808080"/>
<path d="M9.99998 10.7259C9.29998 10.7259 8.59165 10.5093 8.04998 10.0676L5.44164 7.98429C5.17498 7.76762 5.12498 7.37595 5.34165 7.10928C5.55831 6.84262 5.94998 6.79262 6.21665 7.00929L8.82497 9.09262C9.45831 9.60095 10.5333 9.60095 11.1666 9.09262L13.775 7.00929C14.0416 6.79262 14.4416 6.83428 14.65 7.10928C14.8666 7.37595 14.825 7.77595 14.55 7.98429L11.9416 10.0676C11.4083 10.5093 10.7 10.7259 9.99998 10.7259Z" fill="#808080"/>
</svg>
