<svg width="19" height="20" viewBox="0 0 19 20" fill="none" xmlns="http://www.w3.org/2000/svg">
<path d="M0.666748 0V6C0.666748 6.70724 0.9477 7.38552 1.4478 7.88562C1.94789 8.38572 2.62617 8.66667 3.33341 8.66667C4.04066 8.66667 4.71894 8.38572 5.21903 7.88562C5.71913 7.38552 6.00008 6.70724 6.00008 6V2C6.00008 1.64638 5.85961 1.30724 5.60956 1.05719C5.35951 0.807143 5.02037 0.666667 4.66675 0.666667C4.31313 0.666667 3.97399 0.807143 3.72394 1.05719C3.47389 1.30724 3.33341 1.64638 3.33341 2V6.66667M8.00008 0.666667H16.6667C17.0204 0.666667 17.3595 0.807143 17.6096 1.05719C17.8596 1.30724 18.0001 1.64638 18.0001 2V18C18.0001 18.3536 17.8596 18.6928 17.6096 18.9428C17.3595 19.1929 17.0204 19.3333 16.6667 19.3333H3.33341C2.97979 19.3333 2.64065 19.1929 2.39061 18.9428C2.14056 18.6928 2.00008 18.3536 2.00008 18V10.6667M14.6667 6H9.33341M14.6667 10H9.33341M14.6667 14H5.33341" stroke="#CACBCE"/>
</svg>
