<svg width="46" height="54" viewBox="0 0 46 54" fill="none" xmlns="http://www.w3.org/2000/svg">
<path fillRule="evenodd" clipRule="evenodd" d="M29.2679 0.333984C29.3825 0.333984 29.4948 0.343627 29.604 0.362145L29.969 0.364384C30.513 0.364384 31.033 0.585718 31.4117 0.977718L44.9183 15.0497C45.2757 15.4204 45.476 15.9191 45.476 16.4337V40.8764C45.5237 47.5671 40.313 53.0337 33.6117 53.3057L12.2277 53.3084H11.937C5.40381 53.1607 0.164095 47.877 0.00446699 41.4075L0.00366211 12.3084C0.158329 5.69238 5.62233 0.364384 12.1903 0.364384L28.9318 0.362145C29.0411 0.343627 29.1534 0.333984 29.2679 0.333984ZM27.2677 4.36332L12.1957 4.36438C7.777 4.36438 4.10766 7.94305 4.00366 12.3564V40.8764C3.905 45.4444 7.505 49.2071 12.0277 49.3084H33.5317C37.9823 49.1244 41.5077 45.4257 41.4759 40.8924L41.4757 18.9553L36.1159 18.958C31.2359 18.9447 27.2679 14.966 27.2679 10.0913L27.2677 4.36332ZM28.7698 33.9556C29.8738 33.9556 30.7698 34.8516 30.7698 35.9556C30.7698 37.0596 29.8738 37.9556 28.7698 37.9556H14.3698C13.2658 37.9556 12.3698 37.0596 12.3698 35.9556C12.3698 34.8516 13.2658 33.9556 14.3698 33.9556H28.7698ZM23.3167 23.9502C24.4207 23.9502 25.3167 24.8462 25.3167 25.9502C25.3167 27.0542 24.4207 27.9502 23.3167 27.9502H14.3674C13.2634 27.9502 12.3674 27.0542 12.3674 25.9502C12.3674 24.8462 13.2634 23.9502 14.3674 23.9502H23.3167ZM31.2677 6.60598L31.2679 10.0913C31.2679 12.7687 33.4466 14.95 36.1213 14.958L39.2837 14.9553L31.2677 6.60598Z" fill="#808080"/>
</svg>
