<svg width="48" height="48" viewBox="0 0 48 48" fill="none" xmlns="http://www.w3.org/2000/svg">
<path d="M18 44H14C6 44 4 42 4 34V14C4 6 6 4 14 4H17C20 4 20.66 4.88002 21.8 6.40002L24.8 10.4C25.56 11.4 26 12 28 12H34C42 12 44 14 44 22V26" stroke="#292D32" strokeWidth="2" strokeMiterlimit="10" strokeLinecap="round" strokeLinejoin="round"/>
<path d="M27.5201 36.6408C22.8201 36.9808 22.8201 43.7808 27.5201 44.1208H38.6401C39.9801 44.1208 41.3001 43.6207 42.2801 42.7207C45.5801 39.8407 43.8201 34.0807 39.4801 33.5407C37.9201 24.1607 24.3602 27.7207 27.5602 36.6607" stroke="#292D32" strokeWidth="2" strokeMiterlimit="10" strokeLinecap="round" strokeLinejoin="round"/>
</svg>
