<svg width="41" height="40" viewBox="0 0 41 40" fill="none" xmlns="http://www.w3.org/2000/svg">
<g id="vuesax/bold/gallery-add">
<g id="gallery-add" opacity="0.5">
<path id="Vector" d="M35.4503 1.66699H30.5503C29.1003 1.66699 28.0337 2.26699 27.5503 3.33366C27.2837 3.81699 27.167 4.38366 27.167 5.05033V9.95033C27.167 12.067 28.4337 13.3337 30.5503 13.3337H35.4503C36.117 13.3337 36.6837 13.217 37.167 12.9503C38.2337 12.467 38.8337 11.4003 38.8337 9.95033V5.05033C38.8337 2.93366 37.567 1.66699 35.4503 1.66699ZM37.017 8.21699C36.8503 8.38366 36.6003 8.50033 36.3337 8.51699H33.9837V9.36699L34.0003 10.8337C33.9837 11.117 33.8837 11.3503 33.6837 11.5503C33.517 11.717 33.267 11.8337 33.0003 11.8337C32.4503 11.8337 32.0003 11.3837 32.0003 10.8337V8.50033L29.667 8.51699C29.117 8.51699 28.667 8.05033 28.667 7.50033C28.667 6.95033 29.117 6.50033 29.667 6.50033L31.1337 6.51699H32.0003V4.18366C32.0003 3.63366 32.4503 3.16699 33.0003 3.16699C33.5503 3.16699 34.0003 3.63366 34.0003 4.18366L33.9837 5.36699V6.50033H36.3337C36.8837 6.50033 37.3337 6.95033 37.3337 7.50033C37.317 7.78366 37.2003 8.01699 37.017 8.21699Z" fill="#6D6D6D"/>
<path id="Vector_2" d="M15.4999 17.2986C17.6906 17.2986 19.4665 15.5226 19.4665 13.3319C19.4665 11.1412 17.6906 9.36523 15.4999 9.36523C13.3091 9.36523 11.5332 11.1412 11.5332 13.3319C11.5332 15.5226 13.3091 17.2986 15.4999 17.2986Z" fill="#6D6D6D"/>
<path id="Vector_3" d="M35.4497 13.333H34.6663V21.0163L34.4497 20.833C33.1497 19.7163 31.0497 19.7163 29.7497 20.833L22.8163 26.783C21.5163 27.8997 19.4163 27.8997 18.1163 26.783L17.5497 26.3163C16.3663 25.283 14.483 25.183 13.1497 26.083L6.91634 30.2663C6.54967 29.333 6.33301 28.2497 6.33301 26.983V13.0163C6.33301 8.31634 8.81634 5.83301 13.5163 5.83301H27.1663V5.04967C27.1663 4.38301 27.283 3.81634 27.5497 3.33301H13.5163C7.44967 3.33301 3.83301 6.94967 3.83301 13.0163V26.983C3.83301 28.7997 4.14967 30.383 4.76634 31.7163C6.19967 34.883 9.26634 36.6663 13.5163 36.6663H27.483C33.5497 36.6663 37.1663 33.0497 37.1663 26.983V12.9497C36.683 13.2163 36.1163 13.333 35.4497 13.333Z" fill="#6D6D6D"/>
</g>
</g>
</svg>
