<svg width="14" height="14" viewBox="0 0 14 14" fill="none" xmlns="http://www.w3.org/2000/svg">
<path d="M13 8.83634C11.0937 9.60716 9.05628 10.0022 7 9.99967C4.878 9.99967 2.85333 9.58634 1 8.83634M9.66667 3.99967V2.66634C9.66667 2.31272 9.52619 1.97358 9.27614 1.72353C9.02609 1.47348 8.68696 1.33301 8.33333 1.33301H5.66667C5.31304 1.33301 4.97391 1.47348 4.72386 1.72353C4.47381 1.97358 4.33333 2.31272 4.33333 2.66634V3.99967M7 7.99967H7.00667M2.33333 13.333H11.6667C12.0203 13.333 12.3594 13.1925 12.6095 12.9425C12.8595 12.6924 13 12.3533 13 11.9997V5.33301C13 4.97939 12.8595 4.64025 12.6095 4.3902C12.3594 4.14015 12.0203 3.99967 11.6667 3.99967H2.33333C1.97971 3.99967 1.64057 4.14015 1.39052 4.3902C1.14048 4.64025 1 4.97939 1 5.33301V11.9997C1 12.3533 1.14048 12.6924 1.39052 12.9425C1.64057 13.1925 1.97971 13.333 2.33333 13.333Z" stroke="#808080" strokeLinecap="round" strokeLinejoin="round"/>
</svg>
