<svg width="20" height="20" viewBox="0 0 20 20" fill="none" xmlns="http://www.w3.org/2000/svg">
<path d="M12.2918 9.79102H7.7085C7.36683 9.79102 7.0835 9.50768 7.0835 9.16602C7.0835 8.82435 7.36683 8.54102 7.7085 8.54102H12.2918C12.6335 8.54102 12.9168 8.82435 12.9168 9.16602C12.9168 9.50768 12.6335 9.79102 12.2918 9.79102Z" fill="#808080"/>
<path d="M9.9999 18.966C8.76657 18.966 7.5249 18.4993 6.55824 17.5744C4.0999 15.2077 1.38324 11.4327 2.40824 6.94102C3.33324 2.86602 6.89157 1.04102 9.9999 1.04102C9.9999 1.04102 9.9999 1.04102 10.0082 1.04102C13.1166 1.04102 16.6749 2.86602 17.5999 6.94935C18.6166 11.441 15.8999 15.2077 13.4416 17.5744C12.4749 18.4993 11.2332 18.966 9.9999 18.966ZM9.9999 2.29102C7.5749 2.29102 4.45824 3.58268 3.63324 7.21602C2.73324 11.141 5.1999 14.5243 7.43324 16.666C8.8749 18.0577 11.1332 18.0577 12.5749 16.666C14.7999 14.5243 17.2666 11.141 16.3832 7.21602C15.5499 3.58268 12.4249 2.29102 9.9999 2.29102Z" fill="#808080"/>
</svg>
