<svg width="20" height="20" viewBox="0 0 20 20" fill="none" xmlns="http://www.w3.org/2000/svg">
<path d="M15.9375 5.625H13.75V4.375H16.5625C16.6454 4.375 16.7249 4.34208 16.7835 4.28347C16.8421 4.22487 16.875 4.14538 16.875 4.0625V2.1875C16.875 2.10462 16.8421 2.02513 16.7835 1.96653C16.7249 1.90792 16.6454 1.875 16.5625 1.875H13.4375C13.3546 1.875 13.2751 1.90792 13.2165 1.96653C13.1579 2.02513 13.125 2.10462 13.125 2.1875V8.1825C12.9165 8.25622 12.7408 8.40127 12.6289 8.59202C12.517 8.78278 12.4761 9.00695 12.5135 9.22492C12.5509 9.44288 12.6641 9.64061 12.8332 9.78316C13.0023 9.9257 13.2163 10.0039 13.4375 10.0039C13.6587 10.0039 13.8727 9.9257 14.0418 9.78316C14.2109 9.64061 14.3241 9.44288 14.3615 9.22492C14.3989 9.00695 14.358 8.78278 14.2461 8.59202C14.1342 8.40127 13.9585 8.25622 13.75 8.1825V6.25H15.9375C16.5177 6.25 17.0741 6.48047 17.4843 6.8907C17.8945 7.30094 18.125 7.85734 18.125 8.4375V12.5H10.625V8.4375C10.6235 8.01612 10.5268 7.60052 10.3422 7.22174C10.1576 6.84295 9.88975 6.51077 9.55875 6.25H12.5V5.625H7.8125C7.35163 5.62661 6.89822 5.74144 6.49215 5.95941C6.08607 6.17738 5.73979 6.49179 5.48375 6.875H1.5625C1.47962 6.875 1.40013 6.90792 1.34153 6.96653C1.28292 7.02513 1.25 7.10462 1.25 7.1875V11.5625C1.25 11.6454 1.28292 11.7249 1.34153 11.7835C1.40013 11.8421 1.47962 11.875 1.5625 11.875H5V12.6562L2.625 14.4375C2.57253 14.4769 2.53377 14.5317 2.51421 14.5943C2.49466 14.6569 2.4953 14.7241 2.51604 14.7863C2.53678 14.8485 2.57657 14.9027 2.62978 14.941C2.68299 14.9794 2.74691 15 2.8125 15H7.8125C7.88012 15 7.94591 14.9781 8 14.9375L10.4169 13.125H11.875V17.5H10.9375C10.8546 17.5 10.7751 17.5329 10.7165 17.5915C10.6579 17.6501 10.625 17.7296 10.625 17.8125C10.625 17.8954 10.6579 17.9749 10.7165 18.0335C10.7751 18.0921 10.8546 18.125 10.9375 18.125H14.6875C14.7704 18.125 14.8499 18.0921 14.9085 18.0335C14.9671 17.9749 15 17.8954 15 17.8125C15 17.7296 14.9671 17.6501 14.9085 17.5915C14.8499 17.5329 14.7704 17.5 14.6875 17.5H13.75V13.125H18.4375C18.5204 13.125 18.5999 13.0921 18.6585 13.0335C18.7171 12.9749 18.75 12.8954 18.75 12.8125V8.4375C18.7492 7.69183 18.4526 6.97694 17.9253 6.44968C17.3981 5.92241 16.6832 5.62583 15.9375 5.625ZM13.75 2.5H16.25V3.75H13.75V2.5ZM13.4375 9.375C13.3757 9.375 13.3153 9.35667 13.2639 9.32233C13.2125 9.288 13.1724 9.23919 13.1488 9.18209C13.1251 9.12499 13.1189 9.06215 13.131 9.00153C13.1431 8.94092 13.1728 8.88523 13.2165 8.84153C13.2602 8.79782 13.3159 8.76806 13.3765 8.756C13.4372 8.74395 13.5 8.75014 13.5571 8.77379C13.6142 8.79744 13.663 8.83749 13.6973 8.88888C13.7317 8.94027 13.75 9.00069 13.75 9.0625C13.75 9.14538 13.7171 9.22487 13.6585 9.28347C13.5999 9.34208 13.5204 9.375 13.4375 9.375ZM7.8125 6.25C8.39266 6.25 8.94906 6.48047 9.3593 6.8907C9.76953 7.30094 10 7.85734 10 8.4375V12.5H5.625V11.875H7.8125C7.89538 11.875 7.97487 11.8421 8.03347 11.7835C8.09208 11.7249 8.125 11.6454 8.125 11.5625V7.1875C8.125 7.10462 8.09208 7.02513 8.03347 6.96653C7.97487 6.90792 7.89538 6.875 7.8125 6.875H6.28375C6.69209 6.47491 7.24083 6.25057 7.8125 6.25ZM1.875 7.5H7.5V8.22625L4.6875 9.35125L1.875 8.22625V7.5ZM4.79813 11.25H1.875V8.89875L4.57125 9.9775C4.64587 10.0074 4.72913 10.0074 4.80375 9.9775L7.5 8.89875V11.25H4.79813ZM7.70813 14.375H3.75L5.41687 13.125H9.375L7.70813 14.375ZM13.125 17.5H12.5V13.125H13.125V17.5Z" fill="black"/>
</svg>
