<svg width="12" height="12" viewBox="0 0 12 12" fill="none" xmlns="http://www.w3.org/2000/svg">
<path fillRule="evenodd" clipRule="evenodd" d="M5.9999 0.399994C6.21207 0.399994 6.41556 0.484279 6.56559 0.634308C6.71562 0.784337 6.7999 0.987821 6.7999 1.19999V5.19999H10.7999C11.0121 5.19999 11.2156 5.28428 11.3656 5.43431C11.5156 5.58434 11.5999 5.78782 11.5999 5.99999C11.5999 6.21217 11.5156 6.41565 11.3656 6.56568C11.2156 6.71571 11.0121 6.79999 10.7999 6.79999H6.7999V10.8C6.7999 11.0122 6.71562 11.2156 6.56559 11.3657C6.41556 11.5157 6.21207 11.6 5.9999 11.6C5.78773 11.6 5.58425 11.5157 5.43422 11.3657C5.28419 11.2156 5.1999 11.0122 5.1999 10.8V6.79999H1.1999C0.987729 6.79999 0.784246 6.71571 0.634217 6.56568C0.484188 6.41565 0.399902 6.21217 0.399902 5.99999C0.399902 5.78782 0.484188 5.58434 0.634217 5.43431C0.784246 5.28428 0.987729 5.19999 1.1999 5.19999H5.1999V1.19999C5.1999 0.987821 5.28419 0.784337 5.43422 0.634308C5.58425 0.484279 5.78773 0.399994 5.9999 0.399994Z" fill="black"/>
</svg>
