<svg width="40" height="40" viewBox="0 0 40 40" fill="none" xmlns="http://www.w3.org/2000/svg">
<path d="M3.33331 14.1654C3.33331 8.33203 6.66665 5.83203 11.6666 5.83203H23.3333" stroke="#292D32" strokeWidth="1.5" strokeMiterlimit="10" strokeLinecap="round" strokeLinejoin="round"/>
<path d="M36.6666 17.5V25.8333C36.6666 31.6667 33.3333 34.1667 28.3333 34.1667H11.6666C6.66665 34.1667 3.33331 31.6667 3.33331 25.8333V21.6333" stroke="#292D32" strokeWidth="1.5" strokeMiterlimit="10" strokeLinecap="round" strokeLinejoin="round"/>
<path d="M11.6667 15L16.8834 19.1667C18.6 20.5333 21.4167 20.5333 23.1334 19.1667L25.1 17.6" stroke="#292D32" strokeWidth="1.5" strokeMiterlimit="10" strokeLinecap="round" strokeLinejoin="round"/>
<path d="M32.5 13.3333C34.8012 13.3333 36.6666 11.4679 36.6666 9.16667C36.6666 6.86548 34.8012 5 32.5 5C30.1988 5 28.3333 6.86548 28.3333 9.16667C28.3333 11.4679 30.1988 13.3333 32.5 13.3333Z" stroke="#292D32" strokeWidth="1.5" strokeMiterlimit="10" strokeLinecap="round" strokeLinejoin="round"/>
</svg>
