<svg width="20" height="20" viewBox="0 0 20 20" fill="none" xmlns="http://www.w3.org/2000/svg">
<path d="M14.5417 18.9577C13.6001 18.9577 12.6084 18.7327 11.5834 18.2993C10.5834 17.8743 9.57508 17.291 8.59175 16.5827C7.61675 15.866 6.67508 15.066 5.78341 14.191C4.90008 13.2993 4.10008 12.3577 3.39175 11.391C2.67508 10.391 2.10008 9.39102 1.69175 8.42435C1.25841 7.39102 1.04175 6.39102 1.04175 5.44935C1.04175 4.79935 1.15841 4.18268 1.38341 3.60768C1.61675 3.01602 1.99175 2.46602 2.50008 1.99102C3.14175 1.35768 3.87508 1.04102 4.65842 1.04102C4.98342 1.04102 5.31675 1.11602 5.60008 1.24935C5.92508 1.39935 6.20008 1.62435 6.40008 1.92435L8.33342 4.64935C8.50842 4.89102 8.64175 5.12435 8.73341 5.35768C8.84175 5.60768 8.90008 5.85768 8.90008 6.09935C8.90008 6.41602 8.80841 6.72435 8.63341 7.01602C8.50841 7.24102 8.31675 7.48268 8.07508 7.72435L7.50842 8.31602C7.51675 8.34102 7.52508 8.35768 7.53341 8.37435C7.63342 8.54935 7.83341 8.84935 8.21675 9.29935C8.62508 9.76602 9.00842 10.191 9.39175 10.5827C9.88342 11.066 10.2917 11.4493 10.6751 11.766C11.1501 12.166 11.4584 12.366 11.6417 12.4577L11.6251 12.4993L12.2334 11.8993C12.4917 11.641 12.7417 11.4493 12.9834 11.3243C13.4417 11.041 14.0251 10.991 14.6084 11.2327C14.8251 11.3243 15.0584 11.4493 15.3084 11.6243L18.0751 13.591C18.3834 13.7993 18.6084 14.066 18.7417 14.3827C18.8667 14.6993 18.9251 14.991 18.9251 15.2827C18.9251 15.6827 18.8334 16.0827 18.6584 16.4577C18.4834 16.8327 18.2667 17.1577 17.9917 17.4577C17.5167 17.9827 17.0001 18.3577 16.4001 18.5993C15.8251 18.8327 15.2001 18.9577 14.5417 18.9577ZM4.65842 2.29102C4.20008 2.29102 3.77508 2.49102 3.36675 2.89102C2.98341 3.24935 2.71675 3.64102 2.55008 4.06602C2.37508 4.49935 2.29175 4.95768 2.29175 5.44935C2.29175 6.22435 2.47508 7.06602 2.84175 7.93268C3.21675 8.81602 3.74175 9.73268 4.40841 10.6493C5.07508 11.566 5.83342 12.4577 6.66675 13.2993C7.50008 14.1243 8.40008 14.891 9.32508 15.566C10.2251 16.2243 11.1501 16.7577 12.0667 17.141C13.4917 17.7493 14.8251 17.891 15.9251 17.4327C16.3501 17.2577 16.7251 16.991 17.0667 16.6077C17.2584 16.3994 17.4084 16.1743 17.5334 15.9077C17.6334 15.6993 17.6834 15.4827 17.6834 15.266C17.6834 15.1327 17.6584 14.9993 17.5917 14.8493C17.5667 14.7993 17.5167 14.7077 17.3584 14.5993L14.5917 12.6327C14.4251 12.516 14.2751 12.4327 14.1334 12.3743C13.9501 12.2993 13.8751 12.2243 13.5917 12.3993C13.4251 12.4827 13.2751 12.6077 13.1084 12.7743L12.4751 13.3993C12.1501 13.716 11.6501 13.791 11.2667 13.6493L11.0417 13.5493C10.7001 13.366 10.3001 13.0827 9.85841 12.7077C9.45842 12.366 9.02508 11.966 8.50008 11.4493C8.09175 11.0327 7.68341 10.591 7.25842 10.0993C6.86675 9.64102 6.58342 9.24935 6.40841 8.92435L6.30841 8.67435C6.25842 8.48268 6.24175 8.37435 6.24175 8.25768C6.24175 7.95768 6.35008 7.69102 6.55841 7.48268L7.18341 6.83268C7.35008 6.66602 7.47508 6.50768 7.55841 6.36602C7.62508 6.25768 7.65008 6.16602 7.65008 6.08268C7.65008 6.01602 7.62508 5.91602 7.58342 5.81602C7.52508 5.68268 7.43341 5.53268 7.31675 5.37435L5.38341 2.64102C5.30008 2.52435 5.20008 2.44102 5.07508 2.38268C4.94175 2.32435 4.80008 2.29102 4.65842 2.29102ZM11.6251 12.5077L11.4917 13.0743L11.7167 12.491C11.6751 12.4827 11.6417 12.491 11.6251 12.5077Z" fill="#808080"/>
<path d="M15.4167 8.12565C15.075 8.12565 14.7917 7.84232 14.7917 7.50065C14.7917 7.20065 14.4917 6.57565 13.9917 6.04232C13.5 5.51732 12.9583 5.20898 12.5 5.20898C12.1583 5.20898 11.875 4.92565 11.875 4.58398C11.875 4.24232 12.1583 3.95898 12.5 3.95898C13.3083 3.95898 14.1583 4.39232 14.9 5.18398C15.5917 5.92565 16.0417 6.83398 16.0417 7.50065C16.0417 7.84232 15.7583 8.12565 15.4167 8.12565Z" fill="#808080"/>
<path d="M18.3333 8.12435C17.9917 8.12435 17.7083 7.84102 17.7083 7.49935C17.7083 4.62435 15.375 2.29102 12.5 2.29102C12.1583 2.29102 11.875 2.00768 11.875 1.66602C11.875 1.32435 12.1583 1.04102 12.5 1.04102C16.0583 1.04102 18.9583 3.94102 18.9583 7.49935C18.9583 7.84102 18.675 8.12435 18.3333 8.12435Z" fill="#808080"/>
</svg>
