<svg width="56" height="46" viewBox="0 0 56 46" fill="none" xmlns="http://www.w3.org/2000/svg">
<path d="M41.3333 44.3337H54.6666V39.0003C54.6666 34.582 51.0849 31.0003 46.6666 31.0003C44.1184 31.0003 41.8484 32.1918 40.3833 34.048M41.3333 44.3337H14.6666M41.3333 44.3337V39.0003C41.3333 37.2504 40.9962 35.5791 40.3833 34.048M14.6666 44.3337H1.33331V39.0003C1.33331 34.582 4.91503 31.0003 9.33331 31.0003C11.8816 31.0003 14.1516 32.1918 15.6166 34.048M14.6666 44.3337V39.0003C14.6666 37.2504 15.0038 35.5791 15.6166 34.048M15.6166 34.048C17.5827 29.1364 22.3862 25.667 28 25.667C33.6138 25.667 38.4173 29.1364 40.3833 34.048M36 9.66699C36 14.0853 32.4183 17.667 28 17.667C23.5817 17.667 20 14.0853 20 9.66699C20 5.24871 23.5817 1.66699 28 1.66699C32.4183 1.66699 36 5.24871 36 9.66699ZM52 17.667C52 20.6125 49.6122 23.0003 46.6666 23.0003C43.7211 23.0003 41.3333 20.6125 41.3333 17.667C41.3333 14.7215 43.7211 12.3337 46.6666 12.3337C49.6122 12.3337 52 14.7215 52 17.667ZM14.6666 17.667C14.6666 20.6125 12.2788 23.0003 9.33331 23.0003C6.38779 23.0003 3.99998 20.6125 3.99998 17.667C3.99998 14.7215 6.38779 12.3337 9.33331 12.3337C12.2788 12.3337 14.6666 14.7215 14.6666 17.667Z" stroke="#666666" strokeWidth="2" strokeLinecap="round" strokeLinejoin="round"/>
</svg>
