<svg width="332" height="158" viewBox="0 0 332 158" fill="none" xmlns="http://www.w3.org/2000/svg">
<path d="M0 32C0 20.7989 0 15.1984 2.17987 10.9202C4.09734 7.15695 7.15695 4.09734 10.9202 2.17987C15.1984 0 20.799 0 32 0H300C311.201 0 316.802 0 321.08 2.17987C324.843 4.09734 327.903 7.15695 329.82 10.9202C332 15.1984 332 20.799 332 32V158H0V32Z" fill="#F6F6F6"/>
<path d="M185.25 59.75H146.75C145.822 59.75 144.932 60.1187 144.275 60.7751C143.619 61.4315 143.25 62.3217 143.25 63.25V94.75C143.25 95.6783 143.619 96.5685 144.275 97.2249C144.932 97.8812 145.822 98.25 146.75 98.25H185.25C186.178 98.25 187.068 97.8812 187.725 97.2249C188.381 96.5685 188.75 95.6783 188.75 94.75V63.25C188.75 62.3217 188.381 61.4315 187.725 60.7751C187.068 60.1187 186.178 59.75 185.25 59.75ZM185.25 63.25V85.7266L179.547 80.0259C179.222 79.7008 178.836 79.443 178.412 79.267C177.987 79.0911 177.532 79.0005 177.072 79.0005C176.612 79.0005 176.157 79.0911 175.732 79.267C175.308 79.443 174.922 79.7008 174.597 80.0259L170.222 84.4009L160.597 74.7759C159.941 74.1201 159.051 73.7516 158.123 73.7516C157.195 73.7516 156.305 74.1201 155.649 74.7759L146.75 83.6747V63.25H185.25ZM146.75 88.625L158.125 77.25L175.625 94.75H146.75V88.625ZM185.25 94.75H180.575L172.7 86.875L177.075 82.5L185.25 90.6769V94.75ZM169.5 72.875C169.5 72.3558 169.654 71.8483 169.942 71.4166C170.231 70.985 170.641 70.6485 171.12 70.4498C171.6 70.2511 172.128 70.1992 172.637 70.3004C173.146 70.4017 173.614 70.6517 173.981 71.0188C174.348 71.386 174.598 71.8537 174.7 72.3629C174.801 72.8721 174.749 73.3999 174.55 73.8795C174.352 74.3592 174.015 74.7692 173.583 75.0576C173.152 75.346 172.644 75.5 172.125 75.5C171.429 75.5 170.761 75.2234 170.269 74.7312C169.777 74.2389 169.5 73.5712 169.5 72.875Z" fill="#B0B0B0"/>
</svg>
