<svg width="134" height="28" viewBox="0 0 134 28" fill="none" xmlns="http://www.w3.org/2000/svg">
<path d="M0.431818 4.79403V0.818181H21.321V4.79403H13.2287V27H8.52415V4.79403H0.431818ZM34.9872 18.7415V7.36364H39.6151V27H35.1278V23.5099H34.9233C34.4801 24.6094 33.7514 25.5085 32.7372 26.2074C31.7315 26.9062 30.4915 27.2557 29.017 27.2557C27.7301 27.2557 26.5923 26.9702 25.6037 26.3991C24.6236 25.8196 23.8565 24.9801 23.3026 23.8807C22.7486 22.7727 22.4716 21.4347 22.4716 19.8665V7.36364H27.0994V19.1506C27.0994 20.3949 27.4403 21.3835 28.1222 22.1165C28.804 22.8494 29.6989 23.2159 30.8068 23.2159C31.4886 23.2159 32.1491 23.0497 32.7884 22.7173C33.4276 22.3849 33.9517 21.8906 34.3608 21.2344C34.7784 20.5696 34.9872 19.7386 34.9872 18.7415ZM56.8896 18.7415V7.36364H61.5174V27H57.0302V23.5099H56.8256C56.3825 24.6094 55.6538 25.5085 54.6396 26.2074C53.6339 26.9062 52.3938 27.2557 50.9194 27.2557C49.6325 27.2557 48.4947 26.9702 47.506 26.3991C46.5259 25.8196 45.7589 24.9801 45.2049 23.8807C44.6509 22.7727 44.3739 21.4347 44.3739 19.8665V7.36364H49.0018V19.1506C49.0018 20.3949 49.3427 21.3835 50.0245 22.1165C50.7063 22.8494 51.6012 23.2159 52.7092 23.2159C53.391 23.2159 54.0515 23.0497 54.6907 22.7173C55.3299 22.3849 55.854 21.8906 56.2631 21.2344C56.6808 20.5696 56.8896 19.7386 56.8896 18.7415ZM70.9041 0.818181V27H66.2763V0.818181H70.9041Z" fill="#333333"/>
<path d="M76.7624 27V0.818181H79.0508V11.1094H79.2553C79.511 10.5213 79.8775 9.91619 80.3548 9.29403C80.8406 8.67187 81.4755 8.15199 82.2596 7.73438C83.0522 7.30824 84.0494 7.09517 85.2511 7.09517C86.8619 7.09517 88.2766 7.52131 89.4954 8.37358C90.7141 9.21733 91.6644 10.402 92.3462 11.9276C93.0281 13.4446 93.369 15.2131 93.369 17.233C93.369 19.2614 93.0281 21.0384 92.3462 22.5639C91.6729 24.0895 90.7269 25.2784 89.5082 26.1307C88.2979 26.983 86.8917 27.4091 85.2894 27.4091C84.0962 27.4091 83.0991 27.196 82.2979 26.7699C81.5053 26.3437 80.8661 25.8196 80.3803 25.1974C79.8945 24.5668 79.5195 23.9531 79.2553 23.3565H78.9741V27H76.7624ZM79.0124 17.1946C79.0124 18.7798 79.2468 20.1861 79.7156 21.4134C80.1928 22.6321 80.8746 23.5909 81.761 24.2898C82.6559 24.9801 83.7383 25.3253 85.0082 25.3253C86.3121 25.3253 87.4158 24.9673 88.3192 24.2514C89.2227 23.527 89.9087 22.5511 90.3775 21.3239C90.8462 20.0966 91.0806 18.7202 91.0806 17.1946C91.0806 15.6861 90.8462 14.3267 90.3775 13.1165C89.9173 11.9062 89.2354 10.9474 88.332 10.2401C87.4286 9.52415 86.3207 9.16619 85.0082 9.16619C83.7298 9.16619 82.6431 9.51136 81.7482 10.2017C80.8619 10.8835 80.1843 11.8295 79.7156 13.0398C79.2468 14.2415 79.0124 15.6264 79.0124 17.1946ZM106 27.4091C104.304 27.4091 102.804 26.9787 101.5 26.1179C100.204 25.2571 99.19 24.0682 98.457 22.5511C97.7241 21.0256 97.3576 19.2656 97.3576 17.2713C97.3576 15.2599 97.7241 13.4915 98.457 11.9659C99.19 10.4318 100.204 9.23864 101.5 8.38636C102.804 7.52557 104.304 7.09517 106 7.09517C107.696 7.09517 109.191 7.52557 110.487 8.38636C111.782 9.24716 112.797 10.4403 113.529 11.9659C114.271 13.4915 114.642 15.2599 114.642 17.2713C114.642 19.2656 114.275 21.0256 113.542 22.5511C112.809 24.0682 111.791 25.2571 110.487 26.1179C109.191 26.9787 107.696 27.4091 106 27.4091ZM106 25.3253C107.363 25.3253 108.518 24.9588 109.464 24.2259C110.41 23.4929 111.126 22.517 111.612 21.2983C112.106 20.0795 112.353 18.7372 112.353 17.2713C112.353 15.8054 112.106 14.4588 111.612 13.2315C111.126 12.0043 110.41 11.0199 109.464 10.2784C108.518 9.53693 107.363 9.16619 106 9.16619C104.645 9.16619 103.49 9.53693 102.535 10.2784C101.589 11.0199 100.869 12.0043 100.375 13.2315C99.8888 14.4588 99.646 15.8054 99.646 17.2713C99.646 18.7372 99.8888 20.0795 100.375 21.2983C100.869 22.517 101.589 23.4929 102.535 24.2259C103.481 24.9588 104.636 25.3253 106 25.3253ZM120.235 7.36364L125.297 15.7372L130.36 7.36364H133.006L126.691 17.1818L133.006 27H130.36L125.297 18.8949L120.235 27H117.601L123.84 17.1818L117.601 7.36364H120.235Z" fill="#525252"/>
</svg>
