<svg width="107" height="30" viewBox="0 0 107 30" fill="none" xmlns="http://www.w3.org/2000/svg">
<path d="M40.9573 18.3752H40.4282C39.9068 18.3752 39.4934 18.2019 39.1645 17.8453C38.8283 17.482 38.6651 17.0206 38.6651 16.4356V11.5372H40.5456C40.8292 11.5372 41.0712 11.4437 41.2649 11.2595C41.4612 11.0732 41.565 10.8302 41.565 10.5574C41.565 10.2722 41.4615 10.0227 41.2649 9.83547C41.0709 9.65087 40.8289 9.55743 40.5456 9.55743H38.6651V6.85384C38.6651 6.54172 38.56 6.27795 38.3514 6.06933C37.9351 5.65372 37.1857 5.65729 36.7873 6.0755C36.5897 6.28282 36.4891 6.54497 36.4891 6.85384V9.55743H35.5492C35.2695 9.55743 35.0207 9.65346 34.8299 9.83547C34.6336 10.0217 34.5298 10.2712 34.5298 10.5574C34.5298 10.8309 34.6336 11.0739 34.8296 11.2591C35.0203 11.4411 35.2692 11.5372 35.5495 11.5372H36.4894V16.4356C36.4894 17.2201 36.6617 17.9303 37.0011 18.5461C37.3424 19.1642 37.8148 19.658 38.4049 20.0129C38.9974 20.3692 39.6781 20.5502 40.4285 20.5502H40.8402C41.1575 20.5502 41.4291 20.4532 41.6478 20.2624C41.8762 20.0626 41.9969 19.7894 41.9969 19.4728C41.9969 19.1671 41.9018 18.9072 41.7143 18.7003C41.5209 18.4874 41.2594 18.3752 40.9573 18.3752Z" fill="#102340"/>
<path d="M51.527 9.46915C51.3259 9.67031 51.2237 9.93084 51.2237 10.2436V16.0437C51.2237 16.5268 51.0955 16.9453 50.8327 17.3226C50.567 17.7042 50.1984 18.0098 49.7371 18.2317C48.7799 18.6918 47.4439 18.6785 46.5024 18.2139C46.0283 17.98 45.664 17.6377 45.3882 17.1682C45.1131 16.7004 44.9736 16.0849 44.9736 15.3387V10.2436C44.9736 9.94868 44.8655 9.68394 44.6602 9.47856C44.2549 9.07398 43.5327 9.05711 43.1113 9.47889C42.9065 9.68361 42.7979 9.94836 42.7979 10.2436V15.3383C42.7979 16.4635 43.0269 17.4355 43.4782 18.2269C43.9331 19.0247 44.5622 19.6392 45.3467 20.0515C46.1221 20.4607 47.0117 20.6677 47.9906 20.6677C48.8922 20.6677 49.7231 20.4665 50.4602 20.0697C50.7337 19.9231 50.9897 19.7524 51.2269 19.559C51.247 19.8371 51.3476 20.0684 51.5267 20.2469C51.9274 20.6475 52.6652 20.6488 53.0798 20.2527C53.2884 20.0541 53.3991 19.7771 53.3991 19.4533V10.2436C53.3991 9.93246 53.2887 9.66285 53.0801 9.46364C52.6645 9.06652 51.9293 9.06814 51.527 9.46915Z" fill="#102340"/>
<path d="M64.0089 9.46915C63.8078 9.67031 63.7056 9.93084 63.7056 10.2436V16.0437C63.7056 16.5268 63.5774 16.9453 63.3146 17.3226C63.0489 17.7042 62.6803 18.0098 62.219 18.2317C61.2619 18.6918 59.9258 18.6785 58.9843 18.2139C58.5103 17.98 58.1459 17.6377 57.8701 17.1682C57.595 16.7004 57.4555 16.0849 57.4555 15.3387V10.2436C57.4555 9.94868 57.3475 9.68394 57.1421 9.47856C56.7369 9.07398 56.0146 9.05711 55.5932 9.47889C55.3885 9.68361 55.2798 9.94836 55.2798 10.2436V15.3383C55.2798 16.4635 55.5088 17.4355 55.9601 18.2269C56.415 19.0247 57.0441 19.6392 57.8286 20.0515C58.604 20.4607 59.4937 20.6677 60.4725 20.6677C61.3741 20.6677 62.205 20.4665 62.9422 20.0697C63.2157 19.9231 63.4717 19.7524 63.7088 19.559C63.729 19.8371 63.8295 20.0684 64.0086 20.2469C64.4093 20.6475 65.1474 20.6488 65.5617 20.2527C65.7703 20.0541 65.881 19.7771 65.881 19.4533V10.2436C65.881 9.93246 65.7707 9.66285 65.5621 9.46364C65.1468 9.06652 64.4116 9.06814 64.0089 9.46915Z" fill="#102340"/>
<path d="M71.0926 18.3945H70.6027C70.4531 18.3945 70.2296 18.3556 70.0106 18.0178C69.8189 17.7219 69.7215 17.3213 69.7215 16.8275V5.65848C69.7215 5.34571 69.6193 5.08519 69.4178 4.88403C69.0152 4.4814 68.2709 4.4814 67.8686 4.88403C67.6675 5.08519 67.5649 5.34571 67.5649 5.65848V16.8275C67.5649 17.5377 67.6899 18.1771 67.9371 18.7271C68.1892 19.29 68.5503 19.738 69.0103 20.0592C69.4769 20.385 70.0125 20.5504 70.6027 20.5504H70.8574C71.1981 20.5504 71.4842 20.4547 71.7084 20.2666C71.9466 20.0674 72.0724 19.7922 72.0724 19.473C72.0724 19.1693 71.9861 18.9149 71.8161 18.7173C71.6357 18.5061 71.3853 18.3945 71.0926 18.3945Z" fill="#102340"/>
<path d="M81.5121 9.83021V9.82989C80.6659 9.32408 79.6988 9.06745 78.6369 9.06745C77.7116 9.06745 76.8586 9.26795 76.1017 9.6641C75.6397 9.90549 75.2296 10.1985 74.8753 10.5394V5.67831C74.8753 5.35192 74.7731 5.0849 74.5716 4.88407C74.1608 4.47267 73.3971 4.48922 73.0026 4.88407C72.8014 5.08522 72.6992 5.35257 72.6992 5.67831V14.9308C72.7125 16.0034 72.975 16.9848 73.4792 17.8472C73.9834 18.7115 74.677 19.4013 75.5407 19.898C76.4044 20.3957 77.3868 20.6478 78.46 20.6478C79.5609 20.6478 80.5598 20.3918 81.429 19.8876C82.2982 19.3851 82.9948 18.6885 83.5 17.817C84.0045 16.9469 84.2601 15.9479 84.2601 14.8484C84.2601 13.7634 84.0116 12.7723 83.5214 11.9018C83.0321 11.0323 82.3556 10.3354 81.5121 9.83021ZM76.6133 18.1181C76.0666 17.7914 75.6322 17.3424 75.3233 16.783C75.0128 16.2224 74.8555 15.5716 74.8555 14.8484C74.8555 14.1379 75.0132 13.4896 75.324 12.9215C75.6332 12.3573 76.0663 11.9093 76.6114 11.589C77.1568 11.2685 77.7794 11.1059 78.4607 11.1059C79.1547 11.1059 79.7835 11.2685 80.3295 11.589C80.8752 11.9096 81.3122 12.3586 81.6273 12.9235C81.9442 13.4922 82.1048 14.1395 82.1048 14.8484C82.1048 15.5699 81.9446 16.2198 81.6282 16.7808C81.3126 17.3411 80.8746 17.7911 80.3269 18.1181C79.2455 18.7654 77.7145 18.7774 76.6133 18.1181Z" fill="#102340"/>
<path d="M95.9925 11.8807C95.4945 11.0096 94.8037 10.3156 93.9394 9.8176C93.0754 9.3199 92.08 9.06748 90.9808 9.06748C89.8819 9.06748 88.8836 9.31957 88.0134 9.81695C87.1423 10.3146 86.4477 11.0093 85.9497 11.8807C85.4523 12.7509 85.2002 13.756 85.2002 14.8679C85.2002 15.9668 85.4523 16.9651 85.9497 17.8349C86.448 18.7074 87.1426 19.402 88.0134 19.8987C88.8836 20.3958 89.8819 20.6479 90.9808 20.6479C92.08 20.6479 93.0754 20.3958 93.9391 19.8981C94.8031 19.4013 95.4967 18.7077 96.0013 17.8365C96.5058 16.9664 96.7614 15.9674 96.7614 14.8637C96.7478 13.7534 96.4892 12.7499 95.9925 11.8807ZM90.9808 11.1063C91.6748 11.1063 92.3039 11.2688 92.8496 11.5894C93.3943 11.9096 93.8278 12.3577 94.137 12.9215C94.4478 13.4903 94.6055 14.145 94.6055 14.8682C94.6055 15.5907 94.4481 16.2416 94.1376 16.8035C93.8285 17.3616 93.395 17.8067 92.8499 18.1276C91.7569 18.7687 90.2041 18.7684 89.112 18.1276C88.5653 17.8064 88.128 17.3603 87.8129 16.8012C87.4969 16.2406 87.3367 15.5904 87.3367 14.8682C87.3367 14.1454 87.4973 13.4916 87.8136 12.9241C88.1293 12.359 88.566 11.9099 89.112 11.5894C89.6574 11.2688 90.2865 11.1063 90.9808 11.1063Z" fill="#102340"/>
<path d="M105.8 18.8343L102.626 14.7729L105.726 10.937C105.899 10.7118 105.991 10.4659 106 10.2063C106.009 9.93152 105.926 9.68981 105.753 9.488C105.627 9.34103 105.393 9.16583 104.991 9.16583C104.824 9.16583 104.661 9.20282 104.505 9.27614C104.342 9.35336 104.196 9.48249 104.082 9.64503L101.239 13.2441L98.3092 9.49839C98.0911 9.28069 97.8131 9.16583 97.5055 9.16583C97.1035 9.16583 96.869 9.34103 96.7431 9.488C96.5753 9.68332 96.4858 9.914 96.4767 10.1729C96.4666 10.4409 96.5624 10.6959 96.7535 10.9204L99.799 14.7888L96.5847 18.8067C96.3862 19.0416 96.2905 19.2959 96.3005 19.562C96.3093 19.8284 96.406 20.0603 96.5873 20.2505C96.7732 20.4471 97.0299 20.5509 97.329 20.5509C97.7589 20.5509 97.9993 20.3504 98.12 20.1888L101.18 16.3065L104.142 20.0733C104.277 20.2414 104.41 20.3591 104.55 20.4334C104.696 20.511 104.877 20.5506 105.088 20.5506C105.307 20.5506 105.516 20.4743 105.711 20.3257C105.917 20.1693 106.046 19.9455 106.084 19.6762C106.124 19.3998 106.029 19.1165 105.8 18.8343Z" fill="#102340"/>
<path d="M29.1005 29.056H0.593262V3.59719H1.36187V28.2874H28.3322V1.42633H21.4534V0.658051H29.1005V29.056Z" fill="#822328"/>
</svg>
