<svg width="172" height="114" viewBox="0 0 172 114" fill="none" xmlns="http://www.w3.org/2000/svg">
<path d="M160.779 43.734C158.989 37.287 147.056 44.2997 147.056 44.2997L150.18 38.6341C150.557 38.0647 150.888 37.4652 151.168 36.8418C152.738 33.3343 152.717 29.5724 151.168 26.3149C150.743 24.3317 149.437 21.4967 145.863 18.3822C139.101 12.51 116.427 8.4891 109.853 9.38187C103.279 10.2746 115.821 13.037 115.821 13.037H114.828C95.7119 11.0107 76.4777 10.7494 57.3934 11.1447C52.607 11.2424 47.807 11.4014 43.1205 12.2078C41.7734 12.435 40.3241 12.7962 39.5199 13.8843C35.967 18.7071 50.5398 19.1773 52.8342 19.0842C42.8229 20.3858 31.7077 20.7856 22.3938 24.6543C21.0967 25.1927 19.8087 25.8333 18.8296 26.8305C17.8505 27.8278 17.2144 29.2476 17.4348 30.6719C18.0777 34.8041 23.7568 36.0308 26.9917 36.9485C26.9917 36.9485 8.42762 49.2928 10.6152 55.558C11.6089 58.5337 13.2286 61.2618 15.3653 63.5588C13.9471 65.3028 12.7238 67.1965 11.717 69.2062C11.1241 70.4193 10.354 72.0799 11.0105 73.4769C14.3907 80.5918 65.6691 105.021 106.759 98.0473C117.674 96.1959 128.547 93.1337 138.108 87.718C147.631 82.3274 157.335 73.4224 159.734 62.1958C159.814 61.8256 159.871 61.4666 159.911 61.1168C161.42 55.9442 162.279 49.1269 160.779 43.734Z" fill="#0067FF"/>
<path opacity="0.8" d="M160.779 43.734C158.989 37.287 147.056 44.2997 147.056 44.2997L150.179 38.6341C150.557 38.0647 150.888 37.4652 151.167 36.8418C152.737 33.3343 152.717 29.5724 151.167 26.3149C150.743 24.3317 149.436 21.4967 145.863 18.3822C139.1 12.51 116.427 8.4891 109.853 9.38187C103.278 10.2746 115.82 13.037 115.82 13.037H114.828C95.7116 11.0107 76.4774 10.7494 57.3931 11.1447C52.6067 11.2424 47.8067 11.4014 43.1202 12.2078C41.7731 12.435 40.3238 12.7962 39.5196 13.8843C35.9667 18.7071 50.5395 19.1773 52.8339 19.0842C42.8226 20.3858 31.7074 20.7856 22.3935 24.6543C21.0964 25.1927 19.8084 25.8333 18.8293 26.8305C17.8502 27.8278 17.4663 29.2294 17.4345 30.6719C17.3436 34.4815 23.468 35.8968 27.0005 36.9485C27.0005 36.9485 8.43641 49.2928 10.624 55.558C11.6177 58.5337 13.2374 61.2618 15.3741 63.5588C13.9527 65.3024 12.7263 67.1961 11.7167 69.2062C11.1238 70.4193 10.3537 72.0799 11.0102 73.4769C14.3904 80.5918 65.6688 105.021 106.759 98.0473C117.674 96.1959 128.546 93.1337 138.108 87.718C147.631 82.3274 157.335 73.4224 159.734 62.1958C159.813 61.8256 159.87 61.4666 159.911 61.1168C161.42 55.9442 162.278 49.1269 160.779 43.734Z" fill="white"/>
<path d="M131.54 36.9904L131.429 36.8881C131.415 36.8768 130.066 35.6569 128.978 35.8727C127.889 36.0885 127.68 36.6996 127.671 36.7269L127.456 36.6542C127.456 36.6224 127.724 35.8932 128.932 35.6501C129.957 35.4456 131.113 36.3316 131.472 36.6246C131.699 36.1907 132.508 34.8277 133.346 34.7232C134.311 34.6028 135.356 35.4047 135.39 35.4411L135.252 35.6206C135.241 35.6206 134.232 34.8391 133.364 34.9391C132.496 35.039 131.606 36.8291 131.597 36.8472L131.54 36.9904Z" fill="#263238"/>
<path d="M128.525 41.3985L128.414 41.2963C128.4 41.2849 127.051 40.0627 125.963 40.2808C124.874 40.4989 124.668 41.1077 124.659 41.1327L124.443 41.06C124.443 41.0305 124.709 40.3013 125.919 40.0582C126.942 39.8537 128.098 40.7397 128.457 41.0327C128.684 40.5988 129.493 39.2336 130.331 39.1291C131.299 39.011 132.341 39.8106 132.376 39.8492L132.237 40.0287C132.237 40.0287 131.219 39.2449 130.351 39.3472C129.484 39.4494 128.593 41.2372 128.584 41.2554L128.525 41.3985Z" fill="#263238"/>
<path d="M138.595 41.3942L138.484 41.292C138.484 41.292 137.459 40.3629 136.642 40.5264C135.824 40.69 135.676 41.1375 135.669 41.158L135.454 41.0853C135.454 41.0603 135.663 40.4901 136.589 40.3038C137.353 40.1516 138.216 40.7809 138.518 41.0307C138.716 40.6696 139.318 39.6677 139.949 39.5951C140.694 39.5042 141.499 40.1221 141.539 40.1493L141.401 40.3288C141.401 40.3288 140.638 39.7382 139.983 39.8222C139.456 39.8881 138.847 40.8808 138.661 41.2602L138.595 41.3942Z" fill="#263238"/>
<path d="M150.442 46.0292L150.331 45.9269C150.331 45.9269 149.67 45.3318 149.156 45.434C148.643 45.5362 148.552 45.8111 148.547 45.8224L148.32 45.7498C148.32 45.7339 148.466 45.3386 149.102 45.2114C149.59 45.1137 150.133 45.484 150.363 45.6657C150.515 45.3931 150.894 44.7979 151.308 44.757C151.807 44.6912 152.353 45.1091 152.375 45.1273L152.237 45.3068C152.237 45.3068 151.741 44.9297 151.328 44.9819C150.999 45.0228 150.612 45.6634 150.49 45.9042L150.442 46.0292Z" fill="#263238"/>
<path d="M94.4426 40.7777H49.0684L49.191 40.6005C49.241 40.5278 50.4155 38.8581 51.8943 38.9921C52.1374 39.0149 52.3691 39.0398 52.5758 39.0648C53.6231 39.1807 54.3795 39.2647 54.7725 38.7741C54.918 38.5475 54.9967 38.2846 54.9997 38.0153C55.0656 37.486 55.1383 36.8795 56.1151 36.5297C56.6943 36.3184 57.2963 36.4797 57.8779 36.6364C58.5003 36.8045 59.0887 36.9635 59.6066 36.6682C60.1246 36.3729 60.2177 35.78 60.3131 35.153C60.3491 34.7197 60.4736 34.2983 60.6789 33.915C61.3036 32.945 62.6666 32.427 63.6434 32.427H63.6616C64.3203 32.427 64.911 32.7337 65.4789 33.0222C66.1286 33.3539 66.7442 33.6674 67.428 33.5492C67.6414 33.4961 67.8389 33.3922 68.0035 33.2462C68.168 33.1002 68.2948 32.9166 68.373 32.711C68.5856 32.1869 68.7417 31.6417 68.8387 31.0845C69.0386 30.1281 69.2271 29.224 70.1381 28.3857C71.1856 27.4696 72.486 26.8922 73.8681 26.7297C79.4474 25.9391 85.6104 30.0895 86.803 35.4415C86.803 35.4847 87.0574 36.5228 87.9911 36.5228C88.3166 36.4915 88.6362 36.415 88.9407 36.2957C90.0947 35.914 91.837 35.3348 93.1546 37.3634C94.8334 39.9462 94.4994 40.6595 94.4563 40.7322L94.4426 40.7777ZM49.5159 40.5505H94.295C94.329 40.3483 94.329 39.5464 92.9842 37.4769C91.7621 35.5983 90.1833 36.1139 89.0315 36.5024C88.7051 36.6332 88.3616 36.7166 88.0115 36.75C86.8939 36.75 86.6054 35.5051 86.6008 35.4915C85.4332 30.2462 79.3906 26.1777 73.9204 26.9546C72.5843 27.1084 71.326 27.6628 70.3107 28.5447C69.4566 29.333 69.2748 30.2008 69.0817 31.1208C68.9821 31.6937 68.8215 32.2542 68.6024 32.7928C68.5111 33.0342 68.3615 33.2494 68.1669 33.419C67.9723 33.5887 67.7387 33.7075 67.487 33.765C66.7283 33.8945 66.0513 33.5379 65.3948 33.2153C64.8496 32.9381 64.284 32.6496 63.6797 32.6451H63.6616C62.7324 32.6451 61.4489 33.1608 60.8878 34.0285C60.699 34.3912 60.5862 34.7885 60.5562 35.1962C60.4562 35.8482 60.3517 36.5228 59.7361 36.8727C59.1205 37.2225 58.4753 37.0385 57.837 36.8727C57.2895 36.725 56.7216 36.5728 56.2105 36.7591C55.3654 37.0658 55.3018 37.5474 55.245 38.0585C55.2353 38.3711 55.1368 38.6744 54.9611 38.9331C54.4908 39.5214 53.639 39.426 52.5622 39.3056C52.335 39.2806 52.1079 39.2557 51.8807 39.2352C50.7994 39.1194 49.8566 40.1302 49.5159 40.5505Z" fill="#263238"/>
<path d="M102.411 29.0219H84.0381L84.1608 28.8425C84.1812 28.8129 84.6742 28.111 85.2966 28.161L85.576 28.1905C86.0144 28.2405 86.2689 28.2586 86.3961 28.0996C86.448 28.019 86.4756 27.9252 86.4756 27.8293C86.4762 27.6819 86.5246 27.5388 86.6135 27.4212C86.7024 27.3037 86.8269 27.2181 86.9685 27.1773C87.2158 27.1123 87.4772 27.1266 87.7159 27.2182C87.9194 27.3083 88.15 27.3156 88.3588 27.2387C88.5383 27.1342 88.5701 26.9229 88.6087 26.6798C88.6229 26.4957 88.6764 26.3168 88.7654 26.1551C88.9117 25.9629 89.0998 25.8066 89.3155 25.6979C89.5312 25.5893 89.7688 25.5312 90.0103 25.5281C90.2791 25.5486 90.5391 25.6327 90.769 25.7734C90.9872 25.9202 91.2471 25.9919 91.5096 25.9779C91.584 25.9584 91.6527 25.9214 91.71 25.8701C91.7673 25.8187 91.8115 25.7544 91.839 25.6826C91.9214 25.4758 91.9823 25.2612 92.0207 25.042C92.0683 24.6182 92.2599 24.2236 92.5637 23.9243C92.9942 23.5475 93.5288 23.3099 94.097 23.2428C96.3687 22.9202 98.8675 24.6058 99.3605 26.7912C99.3605 26.8071 99.4536 27.1705 99.7717 27.1705C99.8948 27.1563 100.016 27.1258 100.131 27.0797C100.614 26.9206 101.341 26.6776 101.9 27.534C102.566 28.5585 102.468 28.8834 102.423 28.9583L102.411 29.0219ZM84.497 28.7948H102.25C102.25 28.6744 102.175 28.3404 101.73 27.6589C101.285 26.9774 100.689 27.141 100.224 27.2955C100.086 27.3505 99.9402 27.3849 99.7921 27.3977C99.6387 27.3893 99.4926 27.3293 99.3775 27.2275C99.2625 27.1256 99.1852 26.9879 99.1583 26.8366C98.704 24.7671 96.3074 23.161 94.1493 23.4677C93.6262 23.5293 93.1338 23.747 92.7363 24.0924C92.4671 24.3594 92.2999 24.7122 92.2638 25.0897C92.2223 25.3229 92.1568 25.5513 92.0684 25.7712C92.0268 25.8783 91.9594 25.9735 91.8722 26.0484C91.7851 26.1232 91.6808 26.1755 91.5687 26.2005C91.2577 26.2258 90.9472 26.1458 90.6873 25.9734C90.4877 25.8487 90.2624 25.771 90.0285 25.7462C89.8234 25.7462 89.6211 25.7933 89.4372 25.8839C89.2532 25.9745 89.0926 26.1061 88.9676 26.2687C88.8978 26.4043 88.8561 26.5527 88.8449 26.7048C88.804 26.9683 88.7563 27.2682 88.4815 27.4249C88.2066 27.5817 87.9385 27.5022 87.6682 27.4249C87.4738 27.3485 87.261 27.3318 87.0571 27.3772C86.9567 27.4026 86.868 27.4614 86.8056 27.544C86.7433 27.6266 86.711 27.7281 86.7141 27.8316C86.7096 27.9695 86.6646 28.103 86.5846 28.2155C86.3734 28.4813 86.0144 28.4427 85.5624 28.3904L85.2875 28.3631C84.9627 28.3631 84.6651 28.6062 84.497 28.7948Z" fill="#263238"/>
<path d="M141.008 55.4783H122.634L122.759 55.3011C122.78 55.2716 123.273 54.5674 123.895 54.6196L124.174 54.6492C124.613 54.6969 124.856 54.7173 124.995 54.5583C125.046 54.4775 125.075 54.3839 125.076 54.288C125.077 54.1409 125.125 53.9979 125.213 53.8804C125.302 53.7629 125.426 53.6772 125.567 53.636C125.814 53.5697 126.076 53.584 126.314 53.6769C126.518 53.7674 126.749 53.774 126.957 53.6951C127.137 53.5928 127.169 53.3816 127.207 53.1362C127.222 52.9531 127.276 52.7751 127.364 52.6137C127.511 52.4204 127.701 52.2633 127.918 52.1546C128.135 52.0459 128.375 51.9885 128.618 51.9868C128.891 52.0069 129.155 52.0918 129.388 52.2344C129.606 52.3804 129.866 52.4521 130.129 52.4388C130.203 52.4192 130.271 52.3822 130.328 52.3308C130.385 52.2794 130.429 52.2152 130.456 52.1435C130.539 51.937 130.6 51.7223 130.637 51.5029C130.685 51.0791 130.877 50.6846 131.18 50.3852C131.61 50.0076 132.145 49.7699 132.714 49.7037C134.985 49.3812 137.484 51.0667 137.977 53.2498C137.977 53.268 138.07 53.6315 138.388 53.6315C138.511 53.6164 138.632 53.5859 138.747 53.5406C139.231 53.3793 139.96 53.1385 140.517 53.9949C141.182 55.0172 141.085 55.3443 141.042 55.4193L141.008 55.4783ZM123.093 55.2512H140.846C140.846 55.133 140.771 54.8082 140.326 54.1153C139.881 53.4225 139.286 53.5974 138.82 53.7519C138.682 53.8069 138.536 53.8413 138.388 53.8541C138.236 53.8453 138.09 53.7854 137.976 53.6841C137.861 53.5827 137.784 53.4458 137.757 53.2952C137.302 51.2235 134.908 49.6152 132.745 49.9241C132.222 49.9839 131.73 50.2009 131.332 50.5465C131.065 50.8146 130.898 51.1669 130.86 51.5438C130.819 51.7771 130.753 52.0055 130.665 52.2253C130.623 52.3326 130.557 52.428 130.47 52.5033C130.383 52.5786 130.279 52.6313 130.167 52.6569C129.856 52.6801 129.545 52.6003 129.283 52.4297C129.085 52.3028 128.859 52.2249 128.625 52.2026C128.421 52.2054 128.221 52.2538 128.038 52.3442C127.856 52.4347 127.696 52.5648 127.571 52.7251C127.501 52.8607 127.459 53.0091 127.448 53.1612C127.407 53.4247 127.359 53.7246 127.087 53.8813C126.814 54.0381 126.542 53.9586 126.271 53.8813C126.077 53.8036 125.864 53.787 125.66 53.8336C125.558 53.8593 125.468 53.9199 125.405 54.0048C125.342 54.0898 125.311 54.1939 125.317 54.2993C125.312 54.4367 125.268 54.5698 125.19 54.6832C124.976 54.949 124.617 54.9104 124.165 54.8582C124.079 54.8582 123.986 54.8377 123.891 54.8309C123.559 54.8218 123.254 55.0717 123.093 55.2512Z" fill="#263238"/>
<path d="M113.622 54.2251H85.6309L85.7558 54.0479C85.7853 54.0025 86.5191 52.9552 87.455 53.0415L87.8821 53.0847C88.5113 53.1551 88.9679 53.2074 89.1928 52.9234C89.28 52.7878 89.3273 52.6303 89.3291 52.4691C89.3261 52.2544 89.3946 52.0449 89.5237 51.8734C89.6528 51.7019 89.8353 51.5782 90.0424 51.5218C90.4104 51.3878 90.7875 51.4877 91.151 51.5854C91.5145 51.6831 91.8779 51.783 92.1801 51.6081C92.4822 51.4332 92.5367 51.0834 92.5935 50.7108C92.615 50.4383 92.6924 50.173 92.8207 49.9316C93.2114 49.3228 94.0678 48.998 94.6789 48.998C95.081 49.032 95.4698 49.1588 95.8147 49.3683C96.21 49.5682 96.5803 49.7567 96.9869 49.6886C97.1109 49.6569 97.2255 49.5957 97.3208 49.5103C97.4161 49.4249 97.4894 49.3177 97.5344 49.1979C97.6631 48.8785 97.7583 48.5465 97.8183 48.2074C97.9433 47.6123 98.0591 47.0512 98.6293 46.5264C99.28 45.9572 100.088 45.5985 100.946 45.4973C104.393 45.0089 108.204 47.5736 108.943 50.8835C108.956 50.9471 109.106 51.515 109.624 51.515C109.82 51.4939 110.012 51.4457 110.194 51.3719C110.917 51.1333 112.012 50.7699 112.834 52.0534C113.861 53.6299 113.681 54.0979 113.636 54.1706L113.622 54.2251ZM86.0829 53.9979H113.47C113.47 53.8457 113.425 53.3459 112.664 52.1806C111.932 51.0447 111.019 51.356 110.288 51.599C110.082 51.681 109.865 51.733 109.645 51.7535C109.079 51.7535 108.806 51.2469 108.736 50.9471C108.023 47.7463 104.333 45.2679 100.994 45.7359C100.181 45.8301 99.4158 46.1692 98.7997 46.7081C98.284 47.1806 98.1773 47.685 98.0569 48.2665C97.9945 48.6213 97.8948 48.9686 97.7593 49.3024C97.7003 49.4573 97.6039 49.5953 97.4786 49.7039C97.3534 49.8125 97.2032 49.8884 97.0414 49.9248C96.5598 50.0066 96.1328 49.7931 95.7284 49.5841C95.4143 49.3907 95.0598 49.2725 94.6925 49.2388C94.1314 49.2388 93.3545 49.5432 93.016 50.0679C92.905 50.2795 92.8377 50.5113 92.8184 50.7494C92.7548 51.1606 92.6889 51.5854 92.2937 51.8103C91.8984 52.0352 91.494 51.9193 91.0919 51.8103C90.7467 51.7172 90.4218 51.6286 90.1197 51.7399C89.6245 51.9193 89.5926 52.1942 89.554 52.5009C89.5487 52.7019 89.4847 52.8969 89.37 53.062C89.0656 53.4414 88.5318 53.3823 87.8571 53.3073L87.4346 53.2619C86.8485 53.2119 86.326 53.7185 86.0829 53.9979Z" fill="#263238"/>
<path d="M115.365 89.0108C115.365 89.0108 113.709 87.2957 114.173 87.3457C114.636 87.3957 115.508 88.6814 115.508 88.6814C115.508 88.6814 115.52 85.8532 115.933 86.4711C116.347 87.089 115.84 88.6928 115.84 88.6928C115.84 88.6928 117.021 86.8505 117.019 87.1503C117.019 88.0817 116.11 88.8109 116.11 88.8109C116.11 88.8109 118.003 87.4093 117.7 87.9772C117.398 88.5451 116.181 89.0835 116.181 89.0835C116.181 89.0835 118.362 88.6428 117.587 88.954C116.812 89.2652 116.076 89.4765 116.076 89.4765H115.472C115.472 89.4765 113.414 88.4429 114.188 88.5974C114.601 88.6699 114.998 88.8096 115.365 89.0108Z" fill="#263238"/>
<path d="M137.239 83.6468C137.239 83.6468 135.949 82.3111 136.312 82.352C136.676 82.3928 137.35 83.3901 137.35 83.3901C137.35 83.3901 137.35 81.1889 137.682 81.6705C138.014 82.152 137.607 83.3992 137.607 83.3992C137.607 83.3992 138.527 81.9658 138.516 82.1998C138.516 82.9244 137.807 83.4923 137.807 83.4923C137.807 83.4923 139.279 82.3997 139.038 82.8426C138.798 83.2856 137.857 83.7036 137.857 83.7036C137.857 83.7036 139.554 83.3606 138.95 83.6014C138.345 83.8422 137.773 84.008 137.773 84.008H137.305C137.305 84.008 135.701 83.2038 136.306 83.3265C136.632 83.3814 136.948 83.4896 137.239 83.6468Z" fill="#263238"/>
<path d="M157.557 78.8499C157.557 78.8499 156.269 77.5142 156.63 77.5551C156.991 77.596 157.668 78.5932 157.668 78.5932C157.668 78.5932 157.668 76.392 158 76.8736C158.332 77.3552 157.927 78.6023 157.927 78.6023C157.927 78.6023 158.836 77.1689 158.836 77.4029C158.836 78.1275 158.127 78.6955 158.127 78.6955C158.127 78.6955 159.599 77.6051 159.358 78.0458C159.118 78.4865 158.175 78.9067 158.175 78.9067C158.175 78.9067 159.872 78.5637 159.27 78.8045C158.668 79.0453 158.093 79.2111 158.093 79.2111H157.623C157.623 79.2111 156.033 78.407 156.623 78.5296C156.95 78.584 157.266 78.6922 157.557 78.8499Z" fill="#263238"/>
<path d="M131.66 89.7952C131.66 89.7952 130.119 88.205 130.553 88.2482C130.987 88.2913 131.794 89.4885 131.794 89.4885C131.794 89.4885 131.794 86.8602 132.189 87.444C132.584 88.0278 132.114 89.4908 132.114 89.4908C132.114 89.4908 133.213 87.7779 133.211 88.0573C133.211 88.9229 132.364 89.5998 132.364 89.5998C132.364 89.5998 134.122 88.2981 133.834 88.8252C133.545 89.3522 132.423 89.8542 132.423 89.8542C132.423 89.8542 134.449 89.4453 133.729 89.7338C133.009 90.0223 132.323 90.2177 132.323 90.2177H131.764C131.764 90.2177 129.849 89.2591 130.569 89.4022C130.951 89.4737 131.32 89.6064 131.66 89.7952Z" fill="#0848A0"/>
<path d="M101.111 82.9506L87.5603 67.7577L84.564 70.1543L69.6028 47.6308L56.5952 50.5294L52.697 43.2487L48.9147 43.0488L41.793 29.0008L31.1435 38.719L25.9845 36.8767L7.22281 56.0041L7.06152 55.8451L25.9232 36.6132L31.0912 38.46L41.8612 28.6328L49.0578 42.8285L52.8356 43.0284L56.7133 50.2704L69.7073 47.3763L69.7504 47.4399L84.6162 69.8227L87.5853 67.4465L101.281 82.7984L101.111 82.9506Z" fill="#263238"/>
<path d="M102.406 84.0675L102.237 84.2188L103.666 85.8208L103.835 85.6696L102.406 84.0675Z" fill="#263238"/>
<path d="M49.6459 52.1552L48.519 52.4609L48.5785 52.6802L49.7054 52.3744L49.6459 52.1552Z" fill="#263238"/>
<path d="M56.5999 50.2701L50.915 51.8125L50.9745 52.0317L56.6594 50.4893L56.5999 50.2701Z" fill="#263238"/>
<path d="M35.2691 43.9138L35.0806 43.7866L38.2405 39.1229L38.0269 37.5191L38.0405 37.4873L41.6957 30.0703L41.9001 30.1703L38.2609 37.5577L38.4767 39.1774L35.2691 43.9138Z" fill="#263238"/>
<path d="M34.5493 44.5626L33.751 45.7422L33.9391 45.8695L34.7374 44.6899L34.5493 44.5626Z" fill="#263238"/>
<path d="M28.812 48.5223L23.6465 55.5234L23.8293 55.6583L28.9948 48.6571L28.812 48.5223Z" fill="#263238"/>
<path d="M29.47 48.0113L29.286 47.8772L29.9697 46.9504L30.2855 42.8478L27.4096 40.5034L26.1079 37.5775L26.3146 37.4844L27.5936 40.3626L30.5218 42.7478L30.1924 47.0322L29.47 48.0113Z" fill="#263238"/>
<path d="M50.0512 45.8829L49.0107 44.1496L49.2061 44.0315L50.1011 45.524L52.6886 43.0547L52.8453 43.2182L50.0512 45.8829Z" fill="#263238"/>
<path d="M102.519 82.2206L102.371 82.0479L106.333 78.6518L114.152 80.3283L126.289 63.3362L126.369 63.3635L134.127 65.9509L140.49 56.9688L140.583 57.0324L161.487 71.7777L161.355 71.964L140.544 57.2845L134.215 66.219L126.376 63.6066L114.252 80.5827L106.394 78.8994L102.519 82.2206Z" fill="#263238"/>
<path d="M138.112 68.21L135.057 66.8743L135.147 66.6653L137.953 67.892L140.406 57.1016L140.629 57.1515L138.112 68.21Z" fill="#263238"/>
<path d="M120.34 82.1015L116.031 81.3541L116.069 81.1293L120.188 81.8448L126.292 64.0781L126.508 64.1508L120.34 82.1015Z" fill="#263238"/>
<path d="M126.117 62.8282C124.828 62.8237 123.55 63.0732 122.358 63.5623C121.165 64.0515 120.08 64.7708 119.166 65.6791C118.251 66.5874 117.524 67.667 117.027 68.8562C116.529 70.0454 116.271 71.321 116.267 72.61C116.262 75.0179 117.153 77.3415 118.765 79.1297C119.925 78.9649 121.106 79.0731 122.216 79.4454C123.456 79.8587 124.596 80.5247 125.565 81.4014H126.448C127.418 80.5249 128.559 79.859 129.799 79.4454C130.968 79.0513 132.217 78.9529 133.434 79.1592C135.069 77.3699 135.975 75.0338 135.976 72.61C135.971 71.3203 135.712 70.0441 135.214 68.8545C134.716 67.6648 133.988 66.5849 133.073 65.6765C132.157 64.7682 131.072 64.0491 129.878 63.5603C128.684 63.0716 127.406 62.8228 126.117 62.8282Z" fill="#0848A0"/>
<path d="M130.701 76.5348C130.398 76.6863 130.095 76.8377 129.792 76.9892C129.495 77.1499 129.208 77.3274 128.931 77.5207C128.829 77.5911 128.729 77.6661 128.627 77.7479L130.242 74.7425L128.027 78.209C127.8 78.3908 127.573 78.5748 127.366 78.7633C127.01 79.0662 126.662 79.3843 126.321 79.7174L126.208 76.4576L128.525 72.9297L126.208 75.9555L126.105 73.0387L125.933 76.3077L125.767 79.5789C125.469 79.2994 125.169 79.0268 124.858 78.7588C124.615 78.5475 124.368 78.3385 124.115 78.1386L122.021 74.5607L123.559 77.7161C123.47 77.6525 123.384 77.5866 123.293 77.5253C123.016 77.3319 122.729 77.1545 122.432 76.9937C122.137 76.837 121.835 76.6847 121.523 76.5394C120.917 76.2432 120.295 75.98 119.661 75.7511C120.275 76.021 120.874 76.3243 121.455 76.6598C121.746 76.8233 122.032 76.9914 122.314 77.1641C122.591 77.3375 122.857 77.5271 123.111 77.732C123.618 78.1373 124.101 78.5712 124.558 79.0314C124.958 79.4289 125.349 79.8424 125.721 80.2581L125.526 84.3971H126.496L126.358 80.4126C126.773 79.9355 127.216 79.4675 127.671 79.0155C128.128 78.5553 128.611 78.1214 129.118 77.7161C129.372 77.5113 129.638 77.3216 129.915 77.1482C130.197 76.9755 130.483 76.8074 130.774 76.6439C131.356 76.3084 131.955 76.0051 132.571 75.7352C131.933 75.9673 131.309 76.2342 130.701 76.5348Z" fill="#263238"/>
<path d="M50.4948 76.2572C50.4948 79.0672 48.9183 79.2785 46.9737 79.2785C45.0292 79.2785 43.4526 79.0672 43.4526 76.2572C43.4526 73.4471 45.0292 67.5703 46.9737 67.5703C48.9183 67.5703 50.4948 73.4448 50.4948 76.2572Z" fill="#0848A0"/>
<path d="M48.1641 77.529L47.5826 77.5699L49.0978 76.5476L48.0165 77.0951L48.1641 76.6658L47.6689 77.27L47.0873 77.5631L47.0419 75.5458L47.3509 74.7985L47.0351 75.2187L47.0078 74.0488L47.9733 72.7608L47.001 73.7558L46.942 71.1797L46.8897 72.8289L46.2718 72.1383L46.8806 73.1447L46.7988 75.7571L46.2582 75.405L45.7675 74.5349L45.9651 75.2119L45.002 74.5826L46.7875 76.1228L46.5172 84.6938H47.2509L47.0964 77.897L47.2668 77.7834L48.1641 77.529Z" fill="#263238"/>
<path d="M145.181 66.5755C145.181 72.0661 142.1 72.4818 138.302 72.4818C134.504 72.4818 131.423 72.0661 131.423 66.5755C131.423 61.0848 134.501 49.6016 138.302 49.6016C142.102 49.6016 145.181 61.0894 145.181 66.5755Z" fill="#0848A0"/>
<path opacity="0.31" d="M145.181 66.5755C145.181 72.0661 142.1 72.4818 138.302 72.4818C134.504 72.4818 131.423 72.0661 131.423 66.5755C131.423 61.0848 134.501 49.6016 138.302 49.6016C142.102 49.6016 145.181 61.0894 145.181 66.5755Z" fill="white"/>
<path d="M140.629 69.0641L139.491 69.1413L142.453 67.1445L140.338 68.2145L140.629 67.3785L139.661 68.5552L138.525 69.13L138.435 65.1864L139.037 63.7257L138.421 64.548L138.369 62.2605L140.254 59.748L138.355 61.6903L138.239 56.6562L138.139 59.8797L136.928 58.5304L138.119 60.4976L137.957 65.5998L136.906 64.9115L135.947 63.2123L136.331 64.5367L134.448 63.3054L137.935 66.3131L137.408 83.0621H138.843L138.539 69.7819L138.873 69.5593L140.629 69.0641Z" fill="#263238"/>
<path d="M159.906 68.7315C159.906 71.5438 158.33 71.755 156.385 71.755C154.441 71.755 152.864 71.5438 152.864 68.7315C152.864 65.9191 154.441 60.0469 156.385 60.0469C158.33 60.0469 159.906 65.9214 159.906 68.7315Z" fill="#0848A0"/>
<path opacity="0.5" d="M159.906 68.7315C159.906 71.5438 158.33 71.755 156.385 71.755C154.441 71.755 152.864 71.5438 152.864 68.7315C152.864 65.9191 154.441 60.0469 156.385 60.0469C158.33 60.0469 159.906 65.9214 159.906 68.7315Z" fill="white"/>
<path d="M157.576 70.0134L156.994 70.052L158.509 69.0297L157.426 69.5772L157.576 69.1501L157.081 69.7521L156.499 70.0474L156.454 68.0279L156.76 67.2806L156.447 67.7008L156.419 66.5309L157.385 65.2451L156.413 66.2401L156.354 63.6641L156.301 65.311L155.683 64.6227L156.292 65.6291L156.208 68.2415L155.67 67.8871L155.179 67.017L155.377 67.6963L154.414 67.0647L156.197 68.6049L155.927 77.1759H156.663L156.508 70.3814L156.676 70.2655L157.576 70.0134Z" fill="#263238"/>
<path d="M16.4113 66.3575C16.4113 69.1675 14.8348 69.381 12.8902 69.381C10.9457 69.381 9.36914 69.1675 9.36914 66.3575C9.36914 63.5474 10.9457 57.6797 12.8902 57.6797C14.8348 57.6797 16.4113 63.5474 16.4113 66.3575Z" fill="#0848A0"/>
<path opacity="0.5" d="M16.4113 66.3575C16.4113 69.1675 14.8348 69.381 12.8902 69.381C10.9457 69.381 9.36914 69.1675 9.36914 66.3575C9.36914 63.5474 10.9457 57.6797 12.8902 57.6797C14.8348 57.6797 16.4113 63.5474 16.4113 66.3575Z" fill="white"/>
<path d="M14.0806 67.6361L13.4991 67.677L15.0143 66.6547L13.9307 67.2022L14.0806 66.7751L13.5854 67.3771L13.0038 67.6702L12.9584 65.6529L13.2651 64.9056L12.9516 65.3258L12.9243 64.1559L13.8875 62.8701L12.9175 63.8629L12.8585 61.2891L12.8062 62.936L12.1883 62.2454L12.7971 63.2541L12.7153 65.8642L12.1747 65.5121L11.684 64.642L11.8816 65.3213L10.9185 64.6897L12.7017 66.2299L12.4314 74.8009H13.1674L13.0129 68.0041L13.181 67.8905L14.0806 67.6361Z" fill="#263238"/>
<path d="M33.8548 59.9845C32.5658 59.98 31.2885 60.2295 30.0959 60.7186C28.9032 61.2078 27.8186 61.9271 26.904 62.8354C25.9893 63.7437 25.2625 64.8233 24.7651 66.0125C24.2677 67.2017 24.0094 68.4773 24.0049 69.7663C24.0007 72.1749 24.8912 74.4991 26.5037 76.2883C27.6627 76.1224 28.8443 76.2298 29.9544 76.6017C31.1939 77.015 32.334 77.681 33.3028 78.5576H34.2047C35.1745 77.6812 36.3154 77.0153 37.5554 76.6017C38.7252 76.2099 39.9734 76.1116 41.1901 76.3155C42.8219 74.5249 43.7253 72.1889 43.723 69.7663C43.7182 68.4758 43.4591 67.1989 42.9604 66.0086C42.4617 64.8184 41.7333 63.7381 40.8168 62.8296C39.9003 61.9211 38.8136 61.2022 37.619 60.714C36.4244 60.2258 35.1453 59.9779 33.8548 59.9845Z" fill="#0848A0"/>
<path opacity="0.33" d="M33.8548 59.9845C32.5658 59.98 31.2885 60.2295 30.0959 60.7186C28.9032 61.2078 27.8186 61.9271 26.904 62.8354C25.9893 63.7437 25.2625 64.8233 24.7651 66.0125C24.2677 67.2017 24.0094 68.4773 24.0049 69.7663C24.0007 72.1749 24.8912 74.4991 26.5037 76.2883C27.6627 76.1224 28.8443 76.2298 29.9544 76.6017C31.1939 77.015 32.334 77.681 33.3028 78.5576H34.2047C35.1745 77.6812 36.3154 77.0153 37.5554 76.6017C38.7252 76.2099 39.9734 76.1116 41.1901 76.3155C42.8219 74.5249 43.7253 72.1889 43.723 69.7663C43.7182 68.4758 43.4591 67.1989 42.9604 66.0086C42.4617 64.8184 41.7333 63.7381 40.8168 62.8296C39.9003 61.9211 38.8136 61.2022 37.619 60.714C36.4244 60.2258 35.1453 59.9779 33.8548 59.9845Z" fill="white"/>
<path d="M38.4395 73.6956C38.1366 73.8471 37.8337 73.9985 37.5309 74.15C37.2336 74.3091 36.9461 74.4859 36.6699 74.6792L36.3655 74.9064L37.9806 71.8987L35.7658 75.3676C35.5401 75.5478 35.3198 75.7318 35.1047 75.9196C34.7481 76.2308 34.4005 76.5466 34.0598 76.8737L33.9462 73.6138L36.2633 70.0859L33.9303 73.1209L33.828 70.2018L33.6622 73.4662L33.4964 76.7397C33.1988 76.458 32.8989 76.1854 32.5877 75.9173C32.3454 75.7068 32.0978 75.5001 31.8449 75.2971L29.7504 71.7193L31.2883 74.8769C31.1997 74.811 31.1134 74.7474 31.0225 74.6838C30.7463 74.4904 30.4588 74.3137 30.1616 74.1545C29.8663 73.9955 29.5641 73.8433 29.2529 73.7002C28.6467 73.404 28.0248 73.1408 27.3901 72.9119C28.0125 73.1778 28.6193 73.4789 29.2075 73.8137C29.4982 73.9773 29.7845 74.1462 30.0662 74.3203C30.3429 74.493 30.6091 74.6819 30.8635 74.886C31.3696 75.2919 31.8527 75.7257 32.3106 76.1854C32.7104 76.5829 33.1011 76.9963 33.4737 77.4143L33.2624 81.5669H34.2324L34.0938 77.5824C34.5095 77.1054 34.9525 76.6374 35.4068 76.1854C35.8647 75.7257 36.3478 75.2919 36.8539 74.886C37.1083 74.6819 37.3746 74.493 37.6513 74.3203C37.9284 74.1341 38.2139 73.9652 38.5077 73.8137C39.0894 73.482 39.6893 73.1832 40.3046 72.9187C39.6692 73.1435 39.0466 73.4029 38.4395 73.6956Z" fill="#263238"/>
<path d="M61.2034 89.1844V80.1772H49.4702V74.4072L59.5337 50.5547H68.1183V74.5435H71.837V80.1772H68.1183V89.1912L61.2034 89.1844ZM55.297 74.5435H61.2034V58.1421L55.297 74.5435Z" fill="#0D0A0B"/>
<path d="M85.6676 89.2029C83.346 89.2029 81.4226 88.7258 79.8976 87.7717C78.3837 86.834 77.1864 85.4633 76.4605 83.8372C75.7033 82.1713 75.3247 80.2404 75.3247 78.0444V60.7321C75.3247 58.4755 75.6897 56.4969 76.4197 54.7962C77.1059 53.1481 78.2901 51.7558 79.8067 50.814C81.3333 49.8599 83.2884 49.3828 85.6721 49.3828C88.0256 49.3828 89.9573 49.8599 91.4672 50.814C92.9714 51.7633 94.1456 53.1541 94.8292 54.7962C95.5592 56.4954 95.9242 58.474 95.9242 60.7321V78.0444C95.9242 80.2358 95.5456 82.1668 94.7883 83.8372C94.0631 85.463 92.8666 86.8336 91.3536 87.7717C89.8195 88.7258 87.9241 89.2029 85.6676 89.2029ZM85.6676 82.7173C86.5263 82.7173 87.1465 82.4469 87.5281 81.9063C87.9239 81.3279 88.1847 80.668 88.2914 79.9754C88.4119 79.2904 88.4757 78.5967 88.4822 77.9013V60.8661C88.4792 60.1315 88.423 59.3981 88.3141 58.6717C88.2236 57.9641 87.9709 57.287 87.5758 56.693C87.1942 56.1388 86.5581 55.8609 85.6676 55.8593C84.7771 55.8578 84.1335 56.1357 83.7367 56.693C83.3269 57.2816 83.0651 57.9604 82.9734 58.6717C82.8645 59.3981 82.8083 60.1315 82.8053 60.8661V77.9036C82.8107 78.5991 82.8745 79.2928 82.9961 79.9776C83.1038 80.6781 83.3824 81.3412 83.8071 81.9085C84.2206 82.4477 84.8407 82.7173 85.6676 82.7173Z" fill="#0D0A0B"/>
<path d="M111.656 89.1844V80.1772H99.9253V74.4072L109.987 50.5547H118.571V74.5435H122.29V80.1772H118.571V89.1912L111.656 89.1844ZM105.75 74.5435H111.656V58.1421L105.75 74.5435Z" fill="#0D0A0B"/>
<path d="M164.398 70.5493C149.546 80.2857 120.214 86.9053 86.457 86.9053C51.6641 86.9053 21.5714 79.8631 7.18945 69.6406V108.795H164.389L164.398 70.5493Z" fill="white"/>
<path d="M86.4548 87.0274C69.6331 87.0274 53.2726 85.3668 39.1428 82.225C25.381 79.1674 14.3089 74.8489 7.1123 69.7309L7.24406 69.5469C14.4066 74.64 25.4492 78.9448 39.1837 81.9979C53.3089 85.1419 69.6445 86.8002 86.4548 86.8002C116.927 86.8002 144.837 81.4141 161.113 72.3933L161.224 72.5932C144.918 81.6299 116.968 87.0274 86.4548 87.0274Z" fill="#263238"/>
<path d="M162.429 71.9088L162.313 71.7135C163.036 71.2887 163.74 70.8502 164.406 70.4141L164.531 70.6026C163.86 71.0433 163.154 71.4817 162.429 71.9088Z" fill="#263238"/>
<path d="M154.917 68.2775C154.917 74.0203 151.695 74.4542 147.724 74.4542C143.754 74.4542 140.521 74.0203 140.521 68.2775C140.521 62.5347 143.742 50.5312 147.715 50.5312C151.689 50.5312 154.917 62.5347 154.917 68.2775Z" fill="#0848A0"/>
<path d="M150.156 70.8876L148.966 70.9693L152.066 68.8817L149.852 69.9993L150.156 69.127L149.145 70.3583L147.957 70.958L147.864 66.8326L148.493 65.3083L147.848 66.1648L147.793 63.775L149.765 61.1466L147.78 63.1775L147.659 57.9141L147.553 61.2829L146.29 59.8722L147.532 61.9304L147.364 67.2665L146.265 66.5464L145.26 64.77L145.663 66.1534L143.695 64.8676L147.341 68.0116L146.789 85.5262H148.291L147.973 71.6395L148.32 71.4055L150.156 70.8876Z" fill="#263238"/>
<path d="M147.24 85.676C147.24 85.676 144.586 82.9251 145.331 83.0068C146.076 83.0886 147.469 85.1467 147.469 85.1467C147.469 85.1467 147.489 80.6034 148.15 81.6052C148.812 82.607 147.998 85.1672 147.998 85.1672C147.998 85.1672 149.891 82.214 149.888 82.6956C149.875 84.1881 148.428 85.3557 148.428 85.3557C148.428 85.3557 151.463 83.1091 150.972 84.0314C150.481 84.9537 148.537 85.8033 148.537 85.8033C148.537 85.8033 152.033 85.0968 150.79 85.5943C149.548 86.0918 148.366 86.4325 148.366 86.4325H147.401C147.401 86.4325 144.1 84.7765 145.343 85.0241C146.007 85.1353 146.648 85.3556 147.24 85.676Z" fill="#263238"/>
<path d="M20.0621 82.2589C20.0621 82.2589 17.7654 79.8805 18.4083 79.9532C19.0512 80.0259 20.2597 81.8023 20.2597 81.8023C20.2597 81.8023 20.2756 77.8814 20.8504 78.7401C21.4251 79.5988 20.7186 81.8182 20.7186 81.8182C20.7186 81.8182 22.3565 79.2649 22.3519 79.6806C22.3519 80.9732 21.0912 81.9818 21.0912 81.9818C21.0912 81.9818 23.7127 80.0395 23.2833 80.8278C22.854 81.6161 21.1775 82.3589 21.1775 82.3589C21.1775 82.3589 24.2011 81.7501 23.1266 82.1794C22.0521 82.6088 21.0321 82.895 21.0321 82.895H20.1938C20.1938 82.895 17.3406 81.4639 18.4129 81.6774C18.9906 81.7803 19.5476 81.9767 20.0621 82.2589Z" fill="#263238"/>
<path d="M28.3599 65.1495C28.3599 70.8991 25.1364 71.333 21.1587 71.333C17.181 71.333 13.9575 70.8991 13.9575 65.1495C13.9575 59.3999 17.1833 47.3828 21.1587 47.3828C25.1341 47.3828 28.3599 59.3999 28.3599 65.1495Z" fill="#0848A0"/>
<path d="M23.5942 67.7606L22.4039 67.8423L25.5047 65.7524L23.2898 66.8723L23.5942 65.9977L22.5811 67.2313L21.393 67.831L21.2998 63.7034L21.9291 62.1745L21.2839 63.0332L21.2294 60.6389L23.2035 58.0083L21.2158 60.0437L21.0954 54.7734L20.9886 58.1469L19.7233 56.7339L20.9682 58.7943L20.8001 64.135L19.6983 63.4149L18.6942 61.6361L19.0963 63.0219L17.1245 61.7338L20.7774 64.8824L20.2231 82.4151H21.7269L21.4089 68.5148L21.7564 68.2808L23.5942 67.7606Z" fill="#263238"/>
<path d="M45.1976 88.2433C45.1976 88.2433 42.901 85.8649 43.5461 85.9376C44.1913 86.0103 45.3976 87.7867 45.3976 87.7867C45.3976 87.7867 45.4135 83.8658 45.9859 84.7245C46.5584 85.5832 45.8542 87.8026 45.8542 87.8026C45.8542 87.8026 47.492 85.2493 47.4898 85.665C47.4898 86.9576 46.2267 87.9662 46.2267 87.9662C46.2267 87.9662 48.8505 86.0239 48.4211 86.8122C47.9918 87.6004 46.313 88.3546 46.313 88.3546C46.313 88.3546 49.3366 87.7458 48.2621 88.1752C47.1876 88.6045 46.1654 88.8998 46.1654 88.8998H45.3362C45.3362 88.8998 42.4807 87.4687 43.5552 87.6822C44.1295 87.7788 44.6843 87.9684 45.1976 88.2433Z" fill="#263238"/>
<path d="M57.3766 93.4542C57.3766 93.4542 55.0799 91.0758 55.7251 91.1485C56.3702 91.2212 57.5765 92.9976 57.5765 92.9976C57.5765 92.9976 57.5924 89.0767 58.1648 89.9354C58.7373 90.7941 58.0331 93.0135 58.0331 93.0135C58.0331 93.0135 59.671 90.4602 59.6687 90.8782C59.6573 92.1685 58.4056 93.1771 58.4056 93.1771C58.4056 93.1771 61.0294 91.2348 60.6001 92.0231C60.1707 92.8114 58.5124 93.5542 58.5124 93.5542C58.5124 93.5542 61.536 92.9454 60.4615 93.3747C59.387 93.8041 58.3647 94.0994 58.3647 94.0994H57.531C57.531 94.0994 54.6756 92.6683 55.7501 92.8818C56.3196 92.9836 56.8688 93.177 57.3766 93.4542Z" fill="#263238"/>
<path d="M90.0734 89.9545C90.0734 89.9545 88.4173 88.2394 88.883 88.2916C89.3487 88.3439 90.2165 89.6251 90.2165 89.6251C90.2165 89.6251 90.2301 86.7968 90.6436 87.417C91.057 88.0372 90.5482 89.6387 90.5482 89.6387C90.5482 89.6387 91.7294 87.7941 91.7271 88.0962C91.7271 89.0276 90.8185 89.7546 90.8185 89.7546C90.8185 89.7546 92.7108 88.3529 92.4086 88.9231C92.1065 89.4933 90.8889 90.0272 90.8889 90.0272C90.8889 90.0272 93.0697 89.5864 92.2928 89.8977C91.5159 90.2089 90.7821 90.4202 90.7821 90.4202H90.1801C90.1801 90.4202 88.1197 89.3865 88.8944 89.541C89.307 89.6146 89.7051 89.7542 90.0734 89.9545Z" fill="#263238"/>
<path d="M154.377 85.8499C154.377 85.8499 153.089 84.5142 153.45 84.5551C153.811 84.596 154.488 85.5932 154.488 85.5932C154.488 85.5932 154.488 83.392 154.82 83.8736C155.151 84.3552 154.745 85.6023 154.745 85.6023C154.745 85.6023 155.653 84.1689 155.653 84.4029C155.653 85.1275 154.944 85.6932 154.944 85.6932C154.944 85.6932 156.417 84.6028 156.176 85.0458C155.935 85.4887 154.994 85.9044 154.994 85.9044C154.994 85.9044 156.691 85.5637 156.087 85.8045C155.483 86.0453 154.91 86.2111 154.91 86.2111H154.445C154.445 86.2111 152.841 85.407 153.445 85.5296C153.771 85.584 154.086 85.6923 154.377 85.8499Z" fill="#263238"/>
<path d="M67.5752 89.9621C67.5752 89.9621 65.2786 87.5836 65.9237 87.6563C66.5689 87.729 67.7751 89.5055 67.7751 89.5055C67.7751 89.5055 67.791 85.5846 68.3635 86.4433C68.936 87.3019 68.234 89.5236 68.234 89.5236C68.234 89.5236 69.8719 86.968 69.8673 87.386C69.856 88.6763 68.6066 89.6849 68.6066 89.6849C68.6066 89.6849 71.2281 87.7426 70.7987 88.5309C70.3694 89.3192 68.6929 90.062 68.6929 90.062C68.6929 90.062 71.7142 89.4532 70.6397 89.8826C69.5652 90.3119 68.5452 90.6072 68.5452 90.6072H67.7093C67.7093 90.6072 64.8538 89.1761 65.9283 89.3896C66.5048 89.4893 67.0611 89.6827 67.5752 89.9621Z" fill="#0848A0"/>
<path d="M51.015 88.3817C51.015 88.3817 49.4748 86.7915 49.9087 86.8324C50.3426 86.8733 51.149 88.075 51.149 88.075C51.149 88.075 51.149 85.4444 51.5443 86.0305C51.9396 86.6166 51.4557 88.0954 51.4557 88.0954C51.4557 88.0954 52.5552 86.3803 52.5529 86.662C52.5529 87.5275 51.7056 88.2045 51.7056 88.2045C51.7056 88.2045 53.4638 86.9005 53.1753 87.4298C52.8868 87.9591 51.7646 88.4566 51.7646 88.4566C51.7646 88.4566 53.791 88.0477 53.0708 88.3362C52.3507 88.6247 51.6647 88.8224 51.6647 88.8224H51.1059C51.1059 88.8224 49.1908 87.8614 49.911 88.0068C50.2971 88.07 50.6702 88.1967 51.015 88.3817Z" fill="#0848A0"/>
<path d="M31.7659 94.6864C31.7659 94.6864 30.2258 93.0962 30.6596 93.1393C31.0935 93.1825 31.9 94.3797 31.9 94.3797C31.9 94.3797 31.9113 91.7491 32.2952 92.3352C32.6792 92.9213 32.2066 94.4001 32.2066 94.4001C32.2066 94.4001 33.297 92.6691 33.297 92.9576C33.297 93.8231 32.4497 94.5001 32.4497 94.5001C32.4497 94.5001 34.208 93.1961 33.9218 93.7254C33.6355 94.2547 32.5088 94.7522 32.5088 94.7522C32.5088 94.7522 34.5351 94.3433 33.815 94.6318C33.0949 94.9203 32.4088 95.118 32.4088 95.118H31.85C31.85 95.118 29.935 94.1571 30.6551 94.3024C31.0442 94.3677 31.4196 94.4975 31.7659 94.6864Z" fill="#0848A0"/>
<path d="M83.2729 94.9988C83.2729 94.9988 81.7328 93.4087 82.1644 93.4518C82.596 93.495 83.407 94.6922 83.407 94.6922C83.407 94.6922 83.4183 92.0616 83.8022 92.6477C84.1862 93.2338 83.7137 94.7126 83.7137 94.7126C83.7137 94.7126 84.8131 92.9998 84.8086 93.2792C84.8086 94.1447 83.9635 94.8217 83.9635 94.8217C83.9635 94.8217 85.7218 93.5177 85.4333 94.047C85.1448 94.5763 84.0203 95.0738 84.0203 95.0738C84.0203 95.0738 86.0489 94.6649 85.3288 94.9534C84.6087 95.2419 83.9226 95.4395 83.9226 95.4395H83.3615C83.3615 95.4395 81.4488 94.4786 82.1689 94.624C82.5551 94.6872 82.9281 94.8138 83.2729 94.9988Z" fill="#0848A0"/>
<path d="M108.261 95.0747C108.261 95.0747 106.723 93.4845 107.154 93.5277C107.586 93.5709 108.395 94.7703 108.395 94.7703C108.395 94.7703 108.406 92.1397 108.79 92.7258C109.174 93.3119 108.701 94.7885 108.701 94.7885C108.701 94.7885 109.801 93.0756 109.799 93.355C109.799 94.2228 108.951 94.8998 108.951 94.8998C108.951 94.8998 110.709 93.5958 110.423 94.1251C110.137 94.6544 109.01 95.1519 109.01 95.1519C109.01 95.1519 111.037 94.743 110.316 95.0315C109.596 95.32 108.91 95.5177 108.91 95.5177H108.351C108.351 95.5177 106.436 94.5568 107.157 94.6999C107.542 94.7643 107.915 94.8909 108.261 95.0747Z" fill="#0848A0"/>
<path d="M154.711 90.0848C154.711 90.0848 152.366 87.6564 153.025 87.7291C153.684 87.8018 154.913 89.6191 154.913 89.6191C154.913 89.6191 154.931 85.6142 155.515 86.4933C156.099 87.3724 155.381 89.6373 155.381 89.6373C155.381 89.6373 157.055 87.0271 157.051 87.4542C157.051 88.7718 155.762 89.8031 155.762 89.8031C155.762 89.8031 158.439 87.82 158 88.6241C157.562 89.4283 155.851 90.187 155.851 90.187C155.851 90.187 158.936 89.5646 157.839 90.003C156.742 90.4415 155.699 90.7436 155.699 90.7436H154.847C154.847 90.7436 151.932 89.2806 153.03 89.501C153.618 89.6032 154.186 89.8004 154.711 90.0848Z" fill="#0848A0"/>
<path d="M15.0183 90.0848C15.0183 90.0848 12.674 87.6564 13.3305 87.7291C13.987 87.8018 15.2205 89.6191 15.2205 89.6191C15.2205 89.6191 15.2387 85.6142 15.8225 86.4933C16.4063 87.3724 15.6885 89.6373 15.6885 89.6373C15.6885 89.6373 17.3604 87.0271 17.3581 87.4542C17.3581 88.7718 16.0701 89.8031 16.0701 89.8031C16.0701 89.8031 18.7575 87.82 18.3031 88.6241C17.8488 89.4283 16.1519 90.187 16.1519 90.187C16.1519 90.187 19.2391 89.5646 18.1419 90.003C17.0446 90.4415 16.0019 90.7436 16.0019 90.7436H15.1546C15.1546 90.7436 12.2401 89.2806 13.3373 89.501C13.9256 89.6032 14.4933 89.8004 15.0183 90.0848Z" fill="#0848A0"/>
<path d="M26.5828 86.6577C26.5828 86.6577 24.184 82.5187 24.8677 82.2007C25.5515 81.8827 26.9667 85.0289 26.9667 85.0289C26.9667 85.0289 26.6919 79.0976 27.3302 79.6451C27.9685 80.1925 28.5615 84.3906 28.5615 84.3906C28.5615 84.3906 29.8404 79.8268 30.2516 80.7854C30.6627 81.7441 29.9222 84.6473 29.9222 84.6473C29.9222 84.6473 31.7554 81.1557 31.9394 82.2961C32.1234 83.4365 31.0716 85.3061 31.0716 85.3061C31.0716 85.3061 33.4887 82.889 33.6727 83.8477C33.8567 84.8063 33.0344 85.7627 33.0344 85.7627C33.0344 85.7627 36.2261 84.0294 35.4514 84.988C34.6768 85.9467 33.5364 87.1779 33.5364 87.1779C33.5364 87.1779 36.5918 86.083 36.2261 86.7236C35.8603 87.3642 34.4928 88.0457 34.4928 88.0457C34.4928 88.0457 36.9916 87.5914 36.7281 88.0003C36.4726 88.3207 36.1655 88.5963 35.8194 88.8158H24.4611C24.4611 88.8158 21.4511 87.7277 22.6438 87.6368C23.422 87.602 24.1982 87.7417 24.9154 88.0457C24.9154 88.0457 21.2194 85.5469 22.9527 85.356C24.686 85.1652 26.1012 87.3619 26.1012 87.3619C26.1012 87.3619 23.6388 83.8954 24.5111 84.4428L26.5828 86.6577Z" fill="#0848A0"/>
<path d="M26.7386 87.8332C26.7386 87.8332 23.6401 84.6234 24.5101 84.7211C25.3802 84.8187 27.009 87.2199 27.009 87.2199C27.009 87.2199 27.0317 81.9292 27.804 83.0877C28.5764 84.2463 27.6178 87.2381 27.6178 87.2381C27.6178 87.2381 29.8281 83.792 29.8235 84.3553C29.8076 86.0977 28.1198 87.4584 28.1198 87.4584C28.1198 87.4584 31.6591 84.8392 31.073 85.9001C30.4869 86.9609 28.2311 87.9673 28.2311 87.9673C28.2311 87.9673 32.3201 87.1449 30.8617 87.7242C29.4033 88.3035 28.0335 88.7033 28.0335 88.7033H26.8976C26.8976 88.7033 23.0358 86.7701 24.4965 87.0609C25.2815 87.1923 26.0392 87.4533 26.7386 87.8332Z" fill="#263238"/>
<path d="M28.072 88.8177H26.8908L26.8658 88.8041C23.9717 87.3525 24.0512 87.1231 24.083 87.0276C24.133 86.8823 24.3352 86.9095 24.5373 86.9504C25.1129 87.0617 25.676 87.2299 26.2184 87.4524C25.346 86.5188 24.0875 85.0785 24.2647 84.7264C24.289 84.6819 24.3274 84.6467 24.3739 84.6266C24.4204 84.6064 24.4724 84.6024 24.5214 84.6151C25.2529 84.6969 26.4251 86.2167 26.8953 86.8709C26.9135 85.626 27.0112 82.9773 27.5291 82.8228C27.6563 82.7842 27.779 82.8546 27.8971 83.0295C28.4605 83.8746 28.1606 85.5965 27.9267 86.571C29.5441 84.104 29.744 84.1676 29.8371 84.1926C29.8721 84.204 29.9019 84.2273 29.9214 84.2584C29.9409 84.2896 29.9489 84.3266 29.9439 84.363C29.8962 85.2091 29.5776 86.0175 29.0352 86.6687C30.037 85.9736 30.9889 85.4057 31.1956 85.5874C31.3228 85.6987 31.2183 85.8895 31.1774 85.9622C30.8003 86.6551 29.7622 87.3093 29.0375 87.7023C31.216 87.2912 31.2569 87.4229 31.2864 87.5206C31.3273 87.6592 31.1615 87.7364 30.9071 87.8386C29.4714 88.4134 28.0834 88.8154 28.0698 88.82L28.072 88.8177ZM26.9567 88.5905H28.0402C28.1924 88.5451 29.4419 88.1748 30.7662 87.6546C30.2256 87.716 29.217 87.8818 28.2856 88.0794L27.3383 88.2702L27.4769 88.4156L26.6977 87.9295C26.0156 87.5612 25.2784 87.3057 24.5146 87.173L24.426 87.1571C25.2306 87.6892 26.0691 88.168 26.9362 88.5905H26.9567ZM24.4783 84.8332C24.4783 85.124 25.6777 86.5597 26.8317 87.7546L27.3178 88.2589L28.2083 87.8636C28.2311 87.8636 30.4414 86.8641 30.9957 85.8464C31.0117 85.8196 31.0254 85.7915 31.0366 85.7623C30.7049 85.8168 29.3487 86.7028 28.2061 87.5501L28.0675 87.3707C28.0834 87.3593 29.6281 86.0917 29.7235 84.4856C29.3896 84.8219 28.5014 86.0985 27.7313 87.3002L27.277 88.0226L27.5359 87.2048C27.5359 87.1753 28.4605 84.2517 27.7267 83.1499C27.6541 83.0386 27.6154 83.034 27.6154 83.034C27.3678 83.0795 27.1497 84.9945 27.1407 87.2185V87.5842L26.9339 87.2821C26.4796 86.6256 25.1893 84.9082 24.5192 84.8332H24.4783Z" fill="#263238"/>
<path d="M128.752 93.9364C128.752 93.9364 124.208 86.1174 125.51 85.5131C126.812 84.9088 129.479 90.8515 129.479 90.8515C129.479 90.8515 128.961 79.6431 130.16 80.6767C131.36 81.7103 132.489 89.6453 132.489 89.6453C132.489 89.6453 134.903 81.0129 135.68 82.8303C136.457 84.6476 135.067 90.1291 135.067 90.1291C135.067 90.1291 138.533 83.5299 138.879 85.6857C139.224 87.8415 137.241 91.3763 137.241 91.3763C137.241 91.3763 141.811 86.8057 142.157 88.6162C142.502 90.4267 140.948 92.2395 140.948 92.2395C140.948 92.2395 146.984 88.9615 145.519 90.772C144.054 92.5825 141.898 94.9132 141.898 94.9132C141.898 94.9132 147.675 92.8415 146.984 94.05C146.293 95.2585 143.708 96.5488 143.708 96.5488C143.708 96.5488 148.452 95.6856 147.934 96.4625C147.416 97.2394 146.212 98.0004 146.212 98.0004H124.735C124.735 98.0004 119.043 95.9446 121.285 95.7719C123.527 95.5993 125.601 96.5488 125.601 96.5488C125.601 96.5488 118.618 91.8056 121.894 91.4603C125.169 91.115 127.843 95.254 127.843 95.254C127.843 95.254 123.186 88.7002 124.826 89.7361L128.752 93.9364Z" fill="#0848A0"/>
<path d="M129.044 96.1628C129.044 96.1628 123.188 90.0952 124.844 90.2769C126.5 90.4586 129.562 94.9974 129.562 94.9974C129.562 94.9974 129.605 85.0021 131.066 87.1874C132.527 89.3728 130.732 95.0383 130.732 95.0383C130.732 95.0383 134.908 88.5232 134.898 89.5863C134.869 92.8779 131.682 95.4517 131.682 95.4517C131.682 95.4517 138.367 90.4995 137.272 92.4986C136.177 94.4976 131.886 96.4172 131.886 96.4172C131.886 96.4172 139.594 94.8611 136.854 95.9629C134.115 97.0646 131.509 97.812 131.509 97.812H129.387C129.387 97.812 122.118 94.1592 124.844 94.7066C127.57 95.2541 129.044 96.1628 129.044 96.1628Z" fill="#263238"/>
<path d="M131.531 97.9174H129.359L129.334 97.906C126.874 96.6703 123.973 95.1073 124.125 94.6666C124.177 94.5144 124.386 94.4917 124.868 94.5871C126.113 94.8251 127.326 95.211 128.48 95.7366C127.137 94.3168 124.118 91.0047 124.457 90.3187C124.497 90.2324 124.6 90.1369 124.84 90.1642C126.288 90.3232 128.702 93.6126 129.436 94.6371C129.456 92.7698 129.595 87.0634 130.572 86.7726C130.765 86.7135 130.96 86.8317 131.156 87.1224C132.323 88.8784 131.483 92.7062 131.049 94.3282C132.448 92.1701 134.443 89.2328 134.877 89.3623C134.927 89.3782 135.008 89.4259 135.006 89.5895C134.988 91.634 133.754 93.424 132.809 94.494C134.497 93.2946 137.01 91.6226 137.423 91.9815C137.582 92.1201 137.466 92.3813 137.366 92.5653C136.549 94.0624 134.059 95.4708 132.753 96.1319C137.45 95.2232 137.523 95.4844 137.562 95.5889C137.605 95.7343 137.45 95.8456 136.908 96.0637C134.182 97.1496 131.576 97.9083 131.551 97.9151L131.531 97.9174ZM129.411 97.6902H131.499C131.726 97.6266 134.225 96.8883 136.819 95.8502C136.953 95.7986 137.084 95.7402 137.212 95.6753C136.551 95.6753 134.111 96.0842 131.912 96.5271L130.899 96.7316L131.844 96.3113C131.887 96.2932 136.097 94.4054 137.162 92.4495C137.296 92.2064 137.266 92.1428 137.266 92.1428C136.969 91.9361 134.166 93.733 131.737 95.5503L131.599 95.3709C131.63 95.3459 134.734 92.8016 134.779 89.6122C134.325 89.8893 132.435 92.5903 130.822 95.1051L130.367 95.8275L130.626 95.0097C130.645 94.9529 132.389 89.3759 130.974 87.2565C130.901 87.1452 130.758 86.9634 130.647 86.9975C129.965 87.2019 129.693 92.0156 129.679 95.0029V95.3709L129.475 95.0665C129.443 95.021 126.41 90.5708 124.836 90.3959C124.795 90.3959 124.7 90.3846 124.681 90.4254C124.454 90.9002 127.148 94.0238 129.143 96.0887L129.781 96.7498L129 96.2636C128.986 96.2636 127.521 95.355 124.838 94.8166C124.69 94.779 124.537 94.7621 124.384 94.7666C124.618 95.1391 127.076 96.5158 129.411 97.6902Z" fill="#263238"/>
<path d="M34.3991 86.889C34.3991 86.889 34.8535 86.4688 35.2601 86.4688C35.6667 86.4688 36.873 87.0526 36.873 87.0526C36.873 87.0526 37.3591 87.8022 37.4023 87.8477C37.4454 87.8931 38.0429 88.1475 38.0838 88.252C38.1247 88.3565 38.2155 88.7063 38.2155 88.7063H34.5082L33.8267 86.9072L34.3991 86.889Z" fill="white"/>
<path d="M38.3682 88.8118H34.4337L33.6636 86.79L34.3564 86.7718C34.4746 86.6741 34.8857 86.3516 35.2651 86.3516C35.6763 86.3516 36.8007 86.8877 36.928 86.9467L36.9552 86.9604L36.9734 86.9876C37.2006 87.3352 37.4573 87.7259 37.4913 87.7668L37.6549 87.8486C38.0229 88.0303 38.1592 88.1121 38.1978 88.203C38.2364 88.2938 38.3273 88.6323 38.3364 88.6687L38.3682 88.8118ZM34.5881 88.5846H38.0683C38.044 88.4854 38.0144 88.3876 37.9797 88.2916C37.8408 88.2015 37.6958 88.1211 37.5459 88.0508C37.4648 88.0186 37.3884 87.9758 37.3187 87.9236C37.2733 87.8781 36.9757 87.4238 36.7917 87.1376C36.4373 86.9695 35.5536 86.5787 35.256 86.5787C34.9062 86.5787 34.4746 86.9649 34.47 86.9695L34.4382 86.9967L33.9839 87.0103L34.5881 88.5846Z" fill="#263238"/>
<path d="M35.2597 86.4704L35.2369 86.8248C35.2369 86.8248 36.1865 87.3768 36.1661 87.5767C36.1111 87.8037 36.0351 88.025 35.9389 88.2378L36.425 88.7467H33.8467L34.0443 87.2224C34.0443 87.2224 34.5963 86.4273 35.2597 86.4704Z" fill="#263238"/>
<path d="M29.5595 86.672C29.5595 86.672 31.4155 83.8869 31.8312 83.8438C32.1537 83.8526 32.4696 83.9371 32.7533 84.0907C33.037 84.2442 33.2807 84.4623 33.4645 84.7274C33.7398 85.2948 33.9618 85.8864 34.1278 86.4948C34.1505 86.5607 34.2391 86.6061 34.7457 87.4216C35.2523 88.2372 35.2319 88.7051 35.2319 88.7051H28.0557C28.1408 88.304 28.2823 87.9171 28.4759 87.5557C28.6997 87.2726 29.0101 87.0707 29.3596 86.9809L29.5595 86.672Z" fill="white"/>
<path d="M35.3414 88.8151H27.9131L27.9403 88.6765C28.0287 88.2626 28.1756 87.8633 28.3765 87.4907C28.6034 87.1921 28.923 86.9772 29.2852 86.8796L29.4624 86.6048C29.9167 85.9414 31.3819 83.7743 31.8204 83.7266C32.1652 83.7337 32.5035 83.8226 32.8072 83.9861C33.1109 84.1497 33.3715 84.383 33.5673 84.667C33.8453 85.2196 34.0646 85.7997 34.2215 86.398L34.2374 86.4548L34.2806 86.5116C34.3533 86.6093 34.5077 86.8138 34.8462 87.359C35.3664 88.1972 35.3505 88.6856 35.3482 88.7061L35.3414 88.8151ZM28.197 88.5879H35.1143C35.0395 88.1914 34.885 87.8143 34.6599 87.4794C34.4892 87.1939 34.3042 86.9171 34.1056 86.6502C34.0735 86.6141 34.0481 86.5726 34.0307 86.5275C34.0223 86.5061 34.0155 86.4841 34.0102 86.4617C33.8624 85.8794 33.6498 85.3155 33.3764 84.7806C33.2041 84.5339 32.9765 84.3307 32.712 84.1871C32.4474 84.0436 32.153 83.9637 31.8522 83.9537C31.625 83.9878 30.5505 85.3917 29.66 86.7297L29.4328 87.0773L29.3874 87.0886C29.0663 87.1703 28.7802 87.3535 28.5719 87.6111C28.4041 87.9181 28.2795 88.2468 28.2016 88.5879H28.197Z" fill="#263238"/>
<path d="M32.4082 88.6574C32.4082 88.6574 32.2105 88.1713 32.181 88.1054C32.1515 88.0395 32.1583 87.3989 32.0924 87.1331C31.92 86.7538 31.7132 86.3911 31.4745 86.0495L31.8721 84.9023L31.6722 84.7479L32.0038 83.9301L31.8198 83.8438C31.3837 83.921 29.5481 86.6697 29.5481 86.6697L29.3482 86.9786C28.9987 87.0684 28.6883 87.2703 28.4646 87.5534C28.2759 87.8998 28.1382 88.2717 28.0557 88.6574H32.4082Z" fill="#263238"/>
<path d="M105.954 87.5838C106.104 87.4446 106.292 87.3529 106.495 87.3203C106.745 87.3203 107.506 87.6861 107.506 87.6861C107.506 87.6861 107.81 88.1563 107.837 88.1836C107.864 88.2108 108.239 88.3721 108.267 88.438C108.294 88.5039 108.351 88.7197 108.351 88.7197H106.022L105.593 87.5838H105.954Z" fill="white"/>
<path d="M108.489 88.8296H105.945L105.431 87.4803L105.91 87.4666C106.073 87.3207 106.277 87.2287 106.494 87.2031C106.762 87.2031 107.473 87.5416 107.555 87.5802L107.582 87.5939L107.601 87.6211C107.739 87.8369 107.898 88.0754 107.923 88.105C107.948 88.1345 107.964 88.1209 108.012 88.1459C108.255 88.2685 108.341 88.3208 108.371 88.3889C108.406 88.4863 108.436 88.5857 108.459 88.6865L108.489 88.8296ZM106.094 88.6025H108.196C108.18 88.548 108.164 88.5003 108.155 88.4775C108.146 88.4548 107.973 88.3844 107.903 88.348C107.848 88.3268 107.796 88.2969 107.751 88.2594C107.63 88.1044 107.52 87.9412 107.421 87.771C107.125 87.6187 106.812 87.5042 106.487 87.4303C106.313 87.4592 106.152 87.5381 106.022 87.6575L105.992 87.6847H105.749L106.094 88.6025Z" fill="#263238"/>
<path d="M106.494 87.3214L106.481 87.5485C106.481 87.5485 107.076 87.8961 107.062 88.0211C107.029 88.1637 106.983 88.3029 106.924 88.4368L107.228 88.7548H105.606L105.731 87.7984C105.731 87.7984 106.078 87.2941 106.494 87.3214Z" fill="#263238"/>
<path d="M102.919 87.4382C102.919 87.4382 104.084 85.6913 104.347 85.6641C104.549 85.6704 104.747 85.7237 104.925 85.82C105.103 85.9162 105.256 86.0526 105.372 86.2183C105.544 86.5744 105.683 86.9455 105.788 87.3269C105.801 87.3678 105.856 87.3973 106.176 87.9085C106.349 88.1435 106.455 88.4217 106.48 88.7126H101.978C102.031 88.4612 102.119 88.2186 102.242 87.9925C102.382 87.8148 102.577 87.6879 102.796 87.6313L102.919 87.4382Z" fill="white"/>
<path d="M106.588 88.8314H101.838L101.868 88.6929C101.924 88.4288 102.017 88.174 102.145 87.9364C102.29 87.7446 102.493 87.6051 102.724 87.5388L102.827 87.3798C103.281 86.712 104.06 85.5852 104.335 85.5625C104.559 85.5652 104.78 85.6219 104.977 85.7279C105.175 85.8338 105.344 85.986 105.471 86.1713C105.649 86.5209 105.788 86.8888 105.886 87.2685V87.3003C105.886 87.3003 105.886 87.3003 105.907 87.3253C105.952 87.3866 106.05 87.5139 106.264 87.8592C106.45 88.1129 106.561 88.4133 106.586 88.7269L106.588 88.8314ZM102.125 88.6043H106.354C106.301 88.3793 106.208 88.1655 106.08 87.9727C105.871 87.6388 105.777 87.5184 105.734 87.4571C105.711 87.4307 105.693 87.4008 105.68 87.3685L105.668 87.3276C105.575 86.9651 105.443 86.6139 105.273 86.2803C105.17 86.1335 105.034 86.0122 104.877 85.926C104.719 85.8398 104.544 85.7908 104.364 85.7829C104.212 85.8328 103.547 86.7165 103.02 87.5048L102.872 87.7319L102.829 87.7433C102.638 87.7908 102.467 87.8993 102.343 88.0522C102.246 88.2255 102.174 88.4113 102.129 88.6043H102.125Z" fill="#263238"/>
<path d="M104.707 88.6932C104.707 88.6932 104.582 88.3865 104.568 88.3456C104.555 88.3047 104.555 87.8913 104.514 87.7368C104.405 87.4986 104.275 87.2706 104.125 87.0553L104.375 86.3352L104.25 86.2375L104.457 85.7264L104.341 85.6719C104.068 85.7196 102.919 87.4438 102.919 87.4438L102.796 87.6369C102.577 87.6934 102.382 87.8203 102.242 87.9981C102.123 88.2153 102.037 88.4487 101.985 88.6909L104.707 88.6932Z" fill="#263238"/>
<path d="M143.523 94.3787C143.523 94.3787 144.4 93.5859 145.152 93.5859C145.904 93.5859 148.201 94.69 148.201 94.69C148.201 94.69 149.121 96.1052 149.203 96.1915C149.284 96.2779 150.413 96.7572 150.497 96.9548C150.581 97.1525 150.747 97.8044 150.747 97.8044H143.732L142.438 94.4083L143.523 94.3787Z" fill="white"/>
<path d="M150.894 97.9157H143.655L142.273 94.2946L143.473 94.256C143.643 94.1084 144.434 93.4609 145.145 93.4609C145.915 93.4609 148.148 94.5309 148.243 94.5763L148.271 94.59L148.289 94.6172C148.636 95.1533 149.213 96.0279 149.277 96.1006C149.304 96.1211 149.472 96.2051 149.62 96.2801C150.245 96.5913 150.529 96.7549 150.595 96.9002C150.681 97.1024 150.844 97.7385 150.851 97.7657L150.894 97.9157ZM143.811 97.6885H150.601C150.547 97.4863 150.449 97.1297 150.392 97.007C150.336 96.8843 149.788 96.6322 149.525 96.5004C149.383 96.4397 149.248 96.3635 149.123 96.2733C149.038 96.1892 148.359 95.1374 148.123 94.7808C147.857 94.6558 145.826 93.7017 145.152 93.7017C144.477 93.7017 143.607 94.4582 143.6 94.465L143.568 94.4945L142.601 94.5195L143.811 97.6885Z" fill="#263238"/>
<path d="M145.152 93.5729L145.111 94.2408C145.111 94.2408 146.905 95.2857 146.865 95.6605C146.764 96.0906 146.624 96.5104 146.447 96.9145L147.355 97.8754H142.471L142.846 94.9927C142.846 94.9927 143.9 93.5002 145.152 93.5729Z" fill="#263238"/>
<path d="M134.386 93.9617C134.386 93.9617 137.896 88.7005 138.689 88.6165C139.482 88.5324 141.151 89.2003 141.778 90.2862C142.405 91.372 142.989 93.5028 143.032 93.6278C143.075 93.7527 143.241 93.8368 144.2 95.3815C145.159 96.9262 145.12 97.8031 145.12 97.8031H131.538C131.538 97.8031 131.831 96.4242 132.333 95.6314C132.835 94.8386 134.002 94.5455 134.002 94.5455L134.386 93.9617Z" fill="white"/>
<path d="M145.218 97.9133H131.399L131.429 97.777C131.429 97.7179 131.731 96.3686 132.235 95.5667C132.706 94.8238 133.705 94.5081 133.93 94.4445L134.284 93.8947C134.646 93.3518 137.844 88.5858 138.669 88.4995C139.493 88.4132 141.218 89.0969 141.867 90.226C142.242 90.8734 142.656 91.9661 143.098 93.4767C143.114 93.5358 143.126 93.5744 143.13 93.588C143.156 93.6369 143.187 93.6826 143.223 93.7243C143.362 93.9083 143.648 94.2877 144.289 95.3145C145.257 96.8729 145.225 97.7656 145.225 97.802L145.218 97.9133ZM131.681 97.6861H144.993C144.968 97.4112 144.832 96.623 144.084 95.4372C143.76 94.895 143.408 94.3696 143.03 93.8629C142.978 93.8017 142.935 93.7328 142.903 93.6585L142.869 93.5403C142.431 92.0478 142.024 90.9711 141.661 90.3395C141.063 89.3037 139.439 88.6426 138.68 88.7244C138.142 88.7812 135.806 92.0024 134.462 94.0197L134.062 94.6421L134.019 94.6534C134.019 94.6534 132.883 94.9442 132.428 95.6893C132.088 96.317 131.836 96.989 131.681 97.6861Z" fill="#263238"/>
<path d="M139.766 97.7207C139.766 97.7207 139.389 96.8121 139.348 96.6781C139.307 96.544 139.307 95.34 139.18 94.8403C139.052 94.3405 138.012 92.7958 138.012 92.7958L138.764 90.6241L138.387 90.331L139.014 88.7863L138.664 88.625C137.842 88.7727 134.377 93.9657 134.377 93.9657L134.002 94.5495C134.002 94.5495 132.833 94.8425 132.333 95.6354C131.903 96.3169 131.629 97.4163 131.558 97.723L139.766 97.7207Z" fill="#263238"/>
</svg>
