<svg width="64" height="64" viewBox="0 0 64 64" fill="none" xmlns="http://www.w3.org/2000/svg">
<path d="M46.7998 34.5C55.0841 34.5 61.7998 27.7843 61.7998 19.5C61.7998 11.2157 55.0841 4.5 46.7998 4.5C38.5155 4.5 31.7998 11.2157 31.7998 19.5C31.7998 27.7843 38.5155 34.5 46.7998 34.5Z" fill="#689F38" stroke="#37474F" strokeMiterlimit="10" strokeLinecap="round" strokeLinejoin="round"/>
<path d="M47.2002 63.5H46.2002C44.8002 63.5 43.7002 62.4 43.7002 61V30.5H49.7002V61C49.8002 62.4 48.6002 63.5 47.2002 63.5Z" fill="#78909C" stroke="#37474F" strokeMiterlimit="10" strokeLinecap="round" strokeLinejoin="round"/>
<path d="M19.2002 58.5H24.2002C25.6002 58.5 26.7002 57.4 26.7002 56V43C26.7002 41.6 25.6002 40.5 24.2002 40.5H19.2002C17.8002 40.5 16.7002 41.6 16.7002 43V56C16.8002 57.3 17.9002 58.5 19.2002 58.5Z" fill="#455A64" stroke="#37474F" strokeMiterlimit="10" strokeLinecap="round" strokeLinejoin="round"/>
<path d="M56.2002 55C55.8002 55.3 55.3002 55.5 54.7002 55.5H36.8002C34.8002 55.5 32.8002 55.1 30.9002 54.3L26.7002 52.5V56.5L30.9002 58.3C32.8002 59.1 34.8002 59.5 36.8002 59.5H54.7002C56.1002 59.5 57.2002 58.4 57.2002 57C57.2002 56.2 56.8002 55.5 56.2002 55Z" fill="#B0BEC5" stroke="#37474F" strokeMiterlimit="10" strokeLinecap="round" strokeLinejoin="round"/>
<path d="M57.1998 43C57.1998 41.6 56.0998 40.5 54.6998 40.5C56.1998 40.5 57.2998 39.2 57.1998 37.7C57.0998 36.4 55.8998 35.5 54.5998 35.5H43.6998V33C43.6998 31.6 42.5998 30.5 41.1998 30.5H40.7998C39.4998 30.5 38.1998 31 37.2998 32L35.7998 33.5C34.4998 34.8 32.8998 35.9 31.0998 36.7L26.7998 38.6V52.6L30.9998 54.4C32.8998 55.2 34.8998 55.6 36.8998 55.6H54.6998C55.9998 55.6 57.1998 54.7 57.2998 53.4C57.3998 51.9 56.2998 50.6 54.7998 50.6C56.1998 50.6 57.2998 49.5 57.2998 48.1C57.2998 46.7 56.1998 45.6 54.7998 45.6C56.0998 45.5 57.1998 44.4 57.1998 43Z" fill="#ECEFF1" stroke="#37474F" strokeMiterlimit="10" strokeLinecap="round" strokeLinejoin="round"/>
<path d="M28.7002 39.8L31.8002 38.5C33.8002 37.6 35.6002 36.4 37.1002 34.9L38.6002 33.4C39.2002 32.8 39.9002 32.5 40.7002 32.5" stroke="white" strokeMiterlimit="10" strokeLinecap="round" strokeLinejoin="round"/>
<path d="M19.2002 54.5H24.2002C25.6002 54.5 26.7002 53.4 26.7002 52V39C26.7002 37.6 25.6002 36.5 24.2002 36.5H19.2002C17.8002 36.5 16.7002 37.6 16.7002 39V52C16.8002 53.3 17.9002 54.5 19.2002 54.5Z" fill="#78909C" stroke="#37474F" strokeMiterlimit="10" strokeLinecap="round" strokeLinejoin="round"/>
<path d="M54.7998 40.5H51.7998M54.7998 45.5H51.7998M54.7998 50.5H51.7998" stroke="#37474F" strokeMiterlimit="10" strokeLinecap="round" strokeLinejoin="round"/>
<path d="M21.7998 42.5C22.9044 42.5 23.7998 41.6046 23.7998 40.5C23.7998 39.3954 22.9044 38.5 21.7998 38.5C20.6952 38.5 19.7998 39.3954 19.7998 40.5C19.7998 41.6046 20.6952 42.5 21.7998 42.5Z" fill="#26C6DA" stroke="#37474F" strokeMiterlimit="10" strokeLinecap="round" strokeLinejoin="round"/>
<path d="M46.7998 30.5C55.0841 30.5 61.7998 23.7843 61.7998 15.5C61.7998 7.21573 55.0841 0.5 46.7998 0.5C38.5155 0.5 31.7998 7.21573 31.7998 15.5C31.7998 23.7843 38.5155 30.5 46.7998 30.5Z" fill="#9CCC65" stroke="#37474F" strokeMiterlimit="10" strokeLinecap="round" strokeLinejoin="round"/>
<path d="M33.7998 15.5C33.7998 8.3 39.5998 2.5 46.7998 2.5" stroke="#C5E1A5" strokeMiterlimit="10" strokeLinecap="round" strokeLinejoin="round"/>
<path d="M38.0999 16.7L42.9999 21.6C43.5999 22.2 44.4999 22.2 45.0999 21.6L55.3999 11.3C55.9999 10.7 55.9999 9.8 55.3999 9.2C54.7999 8.6 53.8999 8.6 53.2999 9.2L44.0999 18.4L40.1999 14.5C39.5999 13.9 38.6999 13.9 38.0999 14.5C37.4999 15.2 37.4999 16.2 38.0999 16.7Z" fill="#ECEFF1" stroke="#37474F" strokeMiterlimit="10" strokeLinecap="round" strokeLinejoin="round"/>
<path d="M4.79978 56.5H16.7998V42.5H4.79978C3.39978 42.5 2.29978 43.6 2.29978 45V54C2.19978 55.4 3.39978 56.5 4.79978 56.5Z" fill="#0097A7" stroke="#37474F" strokeMiterlimit="10" strokeLinecap="round" strokeLinejoin="round"/>
<path d="M4.79978 52.5H16.7998V38.5H4.79978C3.39978 38.5 2.29978 39.6 2.29978 41V50C2.19978 51.3 3.39978 52.5 4.79978 52.5Z" fill="#26C6DA" stroke="#37474F" strokeMiterlimit="10" strokeLinecap="round" strokeLinejoin="round"/>
</svg>
