<svg width="166" height="46" viewBox="0 0 166 46" fill="none" xmlns="http://www.w3.org/2000/svg">
<path d="M166 41.3889C166 43.9365 163.876 46 161.249 46H5.75759C3.13156 46 1 43.9365 1 41.3889V4.6171C1 2.07077 3.13156 0 5.75759 0H161.247C163.876 0 165.999 2.07077 165.999 4.6171L166 41.3889Z" fill="black"/>
<path d="M159.889 0.921436C162.718 0.921436 165.021 3.08775 165.021 5.75V40.25C165.021 42.9123 162.718 45.0786 159.889 45.0786H7.11111C4.28167 45.0786 1.97931 42.9123 1.97931 40.25V5.75C1.97931 3.08775 4.28167 0.921436 7.11111 0.921436H159.889ZM159.889 0H7.11111C3.75153 0 1 2.58894 1 5.75V40.25C1 43.4111 3.75153 46 7.11111 46H159.889C163.248 46 166 43.4111 166 40.25V5.75C166 2.58894 163.248 0 159.889 0Z" fill="#234167"/>
<path d="M36.0744 21.7899C36.0454 18.6532 38.7086 17.1271 38.8304 17.0561C37.3221 14.912 34.9843 14.6191 34.1628 14.5957C32.1994 14.3942 30.2948 15.7412 29.2946 15.7412C28.2745 15.7412 26.7342 14.6152 25.0742 14.6483C22.9381 14.6804 20.9397 15.8862 19.8437 17.7587C17.5818 21.5768 19.2687 27.1875 21.4358 30.2737C22.5199 31.7851 23.7866 33.4727 25.4446 33.4133C27.0666 33.3481 27.6725 32.4051 29.63 32.4051C31.5695 32.4051 32.1385 33.4133 33.8294 33.3754C35.5703 33.3481 36.6663 31.8571 37.7124 30.3321C38.9651 28.5997 39.4682 26.8936 39.4882 26.806C39.4473 26.7924 36.1073 25.5495 36.0744 21.7899Z" fill="white"/>
<path d="M32.8801 12.5655C33.7526 11.5018 34.3495 10.0546 34.1838 8.58594C32.9211 8.64044 31.3419 9.43752 30.4326 10.4779C29.628 11.3947 28.9093 12.8974 29.095 14.3105C30.5134 14.4137 31.9698 13.6127 32.8801 12.5655Z" fill="white"/>
<path d="M57.96 12.2737C57.96 13.4192 57.6077 14.2815 56.9039 14.8606C56.2521 15.3949 55.3258 15.6625 54.1259 15.6625C53.531 15.6625 53.0219 15.6372 52.5957 15.5866V9.32767C53.1517 9.24008 53.7506 9.19531 54.3975 9.19531C55.5404 9.19531 56.4018 9.43765 56.9828 9.92232C57.6336 10.4703 57.96 11.2537 57.96 12.2737ZM56.857 12.3019C56.857 11.5593 56.6554 10.99 56.2521 10.5929C55.8488 10.1968 55.2599 9.99824 54.4843 9.99824C54.1549 9.99824 53.8744 10.0196 53.6418 10.0644V14.8226C53.7706 14.8421 54.0062 14.8508 54.3485 14.8508C55.1491 14.8508 55.767 14.6338 56.2022 14.1997C56.6374 13.7657 56.857 13.1331 56.857 12.3019Z" fill="white"/>
<path d="M63.8091 13.2791C63.8091 13.9847 63.6025 14.5628 63.1892 15.0163C62.756 15.4825 62.1821 15.7151 61.4654 15.7151C60.7746 15.7151 60.2246 15.4922 59.8143 15.0446C59.4051 14.5978 59.2004 14.0343 59.2004 13.355C59.2004 12.6445 59.4111 12.0616 59.8343 11.609C60.2575 11.1565 60.8265 10.9297 61.5432 10.9297C62.234 10.9297 62.789 11.1526 63.2092 11.5993C63.6085 12.0333 63.8091 12.5939 63.8091 13.2791ZM62.7241 13.3122C62.7241 12.8888 62.6302 12.5258 62.4436 12.2231C62.224 11.8572 61.9115 11.6742 61.5053 11.6742C61.085 11.6742 60.7656 11.8572 60.546 12.2231C60.3583 12.5258 60.2655 12.8947 60.2655 13.3307C60.2655 13.754 60.3593 14.1171 60.546 14.4197C60.7726 14.7857 61.088 14.9686 61.4953 14.9686C61.8946 14.9686 62.208 14.7828 62.4336 14.41C62.6273 14.1015 62.7241 13.7355 62.7241 13.3122Z" fill="white"/>
<path d="M71.6504 11.0234L70.1781 15.6113H69.2198L68.6099 13.6191C68.4552 13.1217 68.3294 12.6273 68.2316 12.1368H68.2127C68.1218 12.641 67.996 13.1344 67.8343 13.6191L67.1865 15.6113H66.2173L64.8328 11.0234H65.9078L66.4399 13.2045C66.5686 13.7203 66.6744 14.2118 66.7593 14.677H66.7782C66.8561 14.2935 66.9849 13.805 67.1665 13.2142L67.8343 11.0244H68.6868L69.3266 13.1675C69.4814 13.6901 69.6071 14.1933 69.704 14.678H69.7329C69.8038 14.2059 69.9106 13.7028 70.0523 13.1675L70.6233 11.0244H71.6504V11.0234Z" fill="white"/>
<path d="M77.074 15.6061H76.0279V12.9783C76.0279 12.1686 75.7125 11.7637 75.0796 11.7637C74.7692 11.7637 74.5186 11.8747 74.324 12.0976C74.1313 12.3204 74.0335 12.5832 74.0335 12.8839V15.6051H72.9874V12.3292C72.9874 11.9263 72.9744 11.4893 72.9495 11.0163H73.8688L73.9177 11.7336H73.9467C74.0684 11.5107 74.2501 11.3267 74.4887 11.1798C74.7722 11.0085 75.0896 10.9219 75.437 10.9219C75.8762 10.9219 76.2415 11.0601 76.532 11.3374C76.8933 11.6771 77.074 12.1842 77.074 12.8577V15.6061Z" fill="white"/>
<path d="M79.9589 15.607H78.9138V8.91406H79.9589V15.607Z" fill="white"/>
<path d="M86.1165 13.2791C86.1165 13.9847 85.9099 14.5628 85.4966 15.0163C85.0634 15.4825 84.4884 15.7151 83.7727 15.7151C83.081 15.7151 82.531 15.4922 82.1217 15.0446C81.7124 14.5978 81.5078 14.0343 81.5078 13.355C81.5078 12.6445 81.7184 12.0616 82.1417 11.609C82.5649 11.1565 83.1339 10.9297 83.8496 10.9297C84.5413 10.9297 85.0953 11.1526 85.5166 11.5993C85.9159 12.0333 86.1165 12.5939 86.1165 13.2791ZM85.0304 13.3122C85.0304 12.8888 84.9366 12.5258 84.75 12.2231C84.5314 11.8572 84.2179 11.6742 83.8126 11.6742C83.3914 11.6742 83.072 11.8572 82.8534 12.2231C82.6657 12.5258 82.5729 12.8947 82.5729 13.3307C82.5729 13.754 82.6667 14.1171 82.8534 14.4197C83.08 14.7857 83.3954 14.9686 83.8027 14.9686C84.202 14.9686 84.5144 14.7828 84.74 14.41C84.9346 14.1015 85.0304 13.7355 85.0304 13.3122Z" fill="white"/>
<path d="M91.1802 15.611H90.2409L90.163 15.0825H90.134C89.8126 15.5039 89.3545 15.7151 88.7595 15.7151C88.3153 15.7151 87.956 15.5759 87.6855 15.2995C87.4399 15.0484 87.3171 14.736 87.3171 14.3652C87.3171 13.8046 87.5567 13.3774 88.0388 13.0815C88.52 12.7857 89.1967 12.6406 90.0682 12.6475V12.5618C90.0682 11.9574 89.7428 11.6557 89.0909 11.6557C88.6268 11.6557 88.2175 11.7696 87.8642 11.9954L87.6515 11.3258C88.0887 11.062 88.6288 10.9297 89.2656 10.9297C90.4954 10.9297 91.1123 11.5623 91.1123 12.8275V14.5171C91.1123 14.9755 91.1352 15.3404 91.1802 15.611ZM90.0941 14.0343V13.3268C88.9402 13.3073 88.3633 13.6158 88.3633 14.2514C88.3633 14.4908 88.4291 14.6699 88.5639 14.7896C88.6986 14.9093 88.8703 14.9686 89.075 14.9686C89.3045 14.9686 89.5192 14.8976 89.7148 14.7565C89.9114 14.6144 90.0322 14.4343 90.0771 14.2134C90.0881 14.1638 90.0941 14.1034 90.0941 14.0343Z" fill="white"/>
<path d="M97.1242 15.607H96.1959L96.147 14.8703H96.118C95.8216 15.4309 95.3165 15.7112 94.6068 15.7112C94.0398 15.7112 93.5676 15.4942 93.1933 15.0601C92.819 14.626 92.6323 14.0625 92.6323 13.3705C92.6323 12.628 92.835 12.0265 93.2422 11.5671C93.6365 11.1389 94.1196 10.9248 94.6946 10.9248C95.3264 10.9248 95.7687 11.1321 96.0202 11.5477H96.0402V8.91406H97.0873V14.371C97.0873 14.8177 97.0993 15.2294 97.1242 15.607ZM96.0402 13.6722V12.9073C96.0402 12.7749 96.0302 12.6679 96.0112 12.5861C95.9523 12.3408 95.8255 12.1345 95.6329 11.9681C95.4382 11.8017 95.2037 11.718 94.9332 11.718C94.5429 11.718 94.2374 11.8688 94.0128 12.1715C93.7902 12.4742 93.6774 12.8606 93.6774 13.3326C93.6774 13.7861 93.7842 14.154 93.9989 14.4372C94.2254 14.7389 94.5309 14.8898 94.9132 14.8898C95.2566 14.8898 95.5311 14.7642 95.7397 14.5122C95.9413 14.2795 96.0402 13.9993 96.0402 13.6722Z" fill="white"/>
<path d="M106.071 13.2791C106.071 13.9847 105.864 14.5628 105.451 15.0163C105.018 15.4825 104.445 15.7151 103.727 15.7151C103.038 15.7151 102.488 15.4922 102.076 15.0446C101.667 14.5978 101.462 14.0343 101.462 13.355C101.462 12.6445 101.673 12.0616 102.096 11.609C102.519 11.1565 103.088 10.9297 103.806 10.9297C104.496 10.9297 105.052 11.1526 105.471 11.5993C105.87 12.0333 106.071 12.5939 106.071 13.2791ZM104.987 13.3122C104.987 12.8888 104.893 12.5258 104.707 12.2231C104.486 11.8572 104.175 11.6742 103.767 11.6742C103.348 11.6742 103.029 11.8572 102.808 12.2231C102.62 12.5258 102.527 12.8947 102.527 13.3307C102.527 13.754 102.621 14.1171 102.808 14.4197C103.035 14.7857 103.35 14.9686 103.757 14.9686C104.157 14.9686 104.471 14.7828 104.697 14.41C104.889 14.1015 104.987 13.7355 104.987 13.3122Z" fill="white"/>
<path d="M111.697 15.6061H110.651V12.9783C110.651 12.1686 110.336 11.7637 109.702 11.7637C109.392 11.7637 109.141 11.8747 108.948 12.0976C108.754 12.3204 108.657 12.5832 108.657 12.8839V15.6051H107.61V12.3292C107.61 11.9263 107.598 11.4893 107.573 11.0163H108.491L108.54 11.7336H108.569C108.692 11.5107 108.874 11.3267 109.111 11.1798C109.396 11.0085 109.712 10.9219 110.061 10.9219C110.499 10.9219 110.864 11.0601 111.155 11.3374C111.517 11.6771 111.697 12.1842 111.697 12.8577V15.6061Z" fill="white"/>
<path d="M118.737 11.7816H117.585V14.0103C117.585 14.5767 117.79 14.8599 118.195 14.8599C118.383 14.8599 118.538 14.8444 118.661 14.8123L118.688 15.586C118.481 15.6619 118.21 15.6999 117.875 15.6999C117.462 15.6999 117.141 15.5772 116.908 15.332C116.675 15.0867 116.559 14.6741 116.559 14.095V11.7816H115.871V11.0176H116.559V10.1767L117.584 9.875V11.0166H118.736V11.7816H118.737Z" fill="white"/>
<path d="M124.274 15.607H123.227V12.9988C123.227 12.1764 122.912 11.7647 122.28 11.7647C121.795 11.7647 121.463 12.0031 121.282 12.48C121.251 12.5803 121.233 12.7029 121.233 12.8469V15.6061H120.188V8.91406H121.233V11.679H121.253C121.582 11.1759 122.054 10.9248 122.666 10.9248C123.099 10.9248 123.458 11.063 123.742 11.3404C124.096 11.6859 124.274 12.1997 124.274 12.8791V15.607Z" fill="white"/>
<path d="M129.987 13.0932C129.987 13.2761 129.973 13.4299 129.948 13.5554H126.811C126.825 14.009 126.975 14.3545 127.265 14.5939C127.531 14.808 127.873 14.9151 128.292 14.9151C128.756 14.9151 129.18 14.843 129.561 14.698L129.725 15.4065C129.278 15.5954 128.753 15.6898 128.145 15.6898C127.417 15.6898 126.843 15.4805 126.428 15.062C126.01 14.6435 125.804 14.082 125.804 13.3773C125.804 12.6854 125.996 12.1092 126.385 11.6498C126.79 11.1593 127.338 10.9141 128.03 10.9141C128.706 10.9141 129.221 11.1593 129.568 11.6498C129.848 12.0391 129.987 12.5209 129.987 13.0932ZM128.989 12.8294C128.997 12.5267 128.928 12.2659 128.786 12.0459C128.605 11.7627 128.328 11.6206 127.954 11.6206C127.612 11.6206 127.334 11.7588 127.121 12.0362C126.948 12.2571 126.845 12.5209 126.811 12.8294H128.989Z" fill="white"/>
<path d="M63.5487 34.1941H61.2818L60.0401 30.3897H55.7239L54.541 34.1941H52.334L56.6103 21.2422H59.2515L63.5487 34.1941ZM59.6657 28.7936L58.5428 25.4116C58.424 25.0661 58.2014 24.2524 57.873 22.9716H57.833C57.7023 23.5225 57.4917 24.3361 57.2022 25.4116L56.0992 28.7936H59.6657Z" fill="white"/>
<path d="M74.5456 29.4106C74.5456 30.9989 74.1054 32.2544 73.225 33.176C72.4364 33.9965 71.4572 34.4062 70.2883 34.4062C69.0266 34.4062 68.1202 33.9644 67.5682 33.0807H67.5283V38.0004H65.4001V27.9303C65.4001 26.9317 65.3732 25.9069 65.3213 24.8558H67.1929L67.3117 26.3361H67.3516C68.0613 25.2208 69.1384 24.6641 70.5838 24.6641C71.7137 24.6641 72.657 25.0991 73.4117 25.9702C74.1683 26.8422 74.5456 27.9887 74.5456 29.4106ZM72.3775 29.4865C72.3775 28.5775 72.1679 27.8281 71.7467 27.2383C71.2865 26.6232 70.6686 26.3157 69.894 26.3157C69.369 26.3157 68.8918 26.4869 68.4656 26.8247C68.0384 27.1653 67.7589 27.6101 67.6281 28.1609C67.5622 28.4179 67.5293 28.6281 67.5293 28.7935V30.3507C67.5293 31.03 67.7429 31.6033 68.1701 32.0714C68.5974 32.5395 69.1524 32.7731 69.8351 32.7731C70.6367 32.7731 71.2606 32.4714 71.7068 31.8699C72.1539 31.2675 72.3775 30.4733 72.3775 29.4865Z" fill="white"/>
<path d="M85.5622 29.4106C85.5622 30.9989 85.122 32.2544 84.2406 33.176C83.453 33.9965 82.4738 34.4062 81.3049 34.4062C80.0432 34.4062 79.1368 33.9644 78.5858 33.0807H78.5459V38.0004H76.4177V27.9303C76.4177 26.9317 76.3908 25.9069 76.3389 24.8558H78.2105L78.3293 26.3361H78.3692C79.0779 25.2208 80.155 24.6641 81.6014 24.6641C82.7303 24.6641 83.6736 25.0991 84.4303 25.9702C85.1839 26.8422 85.5622 27.9887 85.5622 29.4106ZM83.3941 29.4865C83.3941 28.5775 83.1835 27.8281 82.7623 27.2383C82.3021 26.6232 81.6862 26.3157 80.9106 26.3157C80.3846 26.3157 79.9084 26.4869 79.4812 26.8247C79.054 27.1653 78.7755 27.6101 78.6447 28.1609C78.5798 28.4179 78.5459 28.6281 78.5459 28.7935V30.3507C78.5459 31.03 78.7595 31.6033 79.1847 32.0714C79.612 32.5386 80.167 32.7731 80.8517 32.7731C81.6533 32.7731 82.2771 32.4714 82.7233 31.8699C83.1705 31.2675 83.3941 30.4733 83.3941 29.4865Z" fill="white"/>
<path d="M97.8803 30.5642C97.8803 31.6659 97.488 32.5623 96.7004 33.2543C95.835 34.0105 94.6301 34.3881 93.0819 34.3881C91.6525 34.3881 90.5066 34.1195 89.6392 33.5813L90.1323 31.8518C91.0666 32.4027 92.0917 32.6791 93.2087 32.6791C94.0103 32.6791 94.6341 32.502 95.0823 32.1496C95.5285 31.7973 95.7511 31.3243 95.7511 30.7346C95.7511 30.209 95.5675 29.7662 95.1991 29.4071C94.8328 29.0479 94.2209 28.7141 93.3664 28.4056C91.0406 27.5598 89.8787 26.3209 89.8787 24.6917C89.8787 23.627 90.286 22.754 91.1015 22.0746C91.9141 21.3943 92.9981 21.0547 94.3536 21.0547C95.5625 21.0547 96.5667 21.26 97.3682 21.6698L96.8362 23.3613C96.0875 22.9642 95.241 22.7656 94.2938 22.7656C93.5451 22.7656 92.9602 22.9457 92.5409 23.3039C92.1866 23.624 92.0089 24.0143 92.0089 24.4766C92.0089 24.9885 92.2115 25.4119 92.6188 25.7447C92.9731 26.0523 93.617 26.3851 94.5513 26.7443C95.6942 27.1929 96.5337 27.7175 97.0737 28.319C97.6118 28.9185 97.8803 29.6689 97.8803 30.5642Z" fill="white"/>
<path d="M104.917 26.4155H102.571V30.9498C102.571 32.1031 102.984 32.6792 103.813 32.6792C104.193 32.6792 104.509 32.6471 104.758 32.5829L104.817 34.1586C104.398 34.3114 103.846 34.3883 103.162 34.3883C102.322 34.3883 101.665 34.1381 101.191 33.6389C100.719 33.1386 100.481 32.2997 100.481 31.1211V26.4135H99.0835V24.8563H100.481V23.1463L102.571 22.5312V24.8563H104.917V26.4155Z" fill="white"/>
<path d="M115.5 29.4475C115.5 30.8831 115.079 32.0617 114.238 32.9833C113.357 33.9322 112.187 34.4052 110.729 34.4052C109.323 34.4052 108.204 33.9507 107.37 33.0417C106.535 32.1327 106.118 30.9853 106.118 29.6023C106.118 28.1551 106.547 26.9697 107.409 26.048C108.268 25.1254 109.428 24.6641 110.887 24.6641C112.292 24.6641 113.423 25.1186 114.276 26.0285C115.093 26.9113 115.5 28.0509 115.5 29.4475ZM113.292 29.5147C113.292 28.6534 113.104 27.9147 112.721 27.2986C112.275 26.5531 111.637 26.1813 110.811 26.1813C109.955 26.1813 109.305 26.5541 108.859 27.2986C108.477 27.9157 108.288 28.666 108.288 29.5536C108.288 30.415 108.477 31.1536 108.859 31.7687C109.319 32.5142 109.962 32.886 110.792 32.886C111.604 32.886 112.242 32.5064 112.702 31.7493C113.095 31.1215 113.292 30.375 113.292 29.5147Z" fill="white"/>
<path d="M122.418 26.6806C122.208 26.6427 121.983 26.6232 121.748 26.6232C120.999 26.6232 120.42 26.8986 120.013 27.4505C119.658 27.9371 119.481 28.5522 119.481 29.2947V34.195H117.354L117.374 27.7969C117.374 26.7205 117.347 25.7405 117.294 24.8568H119.147L119.225 26.6436H119.284C119.509 26.0295 119.863 25.5351 120.348 25.1643C120.822 24.8305 121.334 24.6641 121.886 24.6641C122.083 24.6641 122.261 24.6777 122.418 24.702V26.6806Z" fill="white"/>
<path d="M131.936 29.0854C131.936 29.4572 131.911 29.7706 131.858 30.0266H125.474C125.499 30.9492 125.807 31.6548 126.4 32.1414C126.938 32.5765 127.634 32.7945 128.488 32.7945C129.433 32.7945 130.296 32.6475 131.072 32.3526L131.405 33.793C130.499 34.1784 129.428 34.3702 128.194 34.3702C126.708 34.3702 125.543 33.9439 124.694 33.0923C123.848 32.2407 123.423 31.0971 123.423 29.6626C123.423 28.2543 123.818 27.0815 124.607 26.1463C125.434 25.1477 126.551 24.6484 127.956 24.6484C129.337 24.6484 130.382 25.1477 131.091 26.1463C131.653 26.9394 131.936 27.9205 131.936 29.0854ZM129.907 28.5472C129.921 27.9322 129.782 27.4008 129.493 26.9521C129.125 26.375 128.559 26.0869 127.797 26.0869C127.102 26.0869 126.536 26.3682 126.104 26.9326C125.749 27.3813 125.539 27.9195 125.474 28.5463H129.907V28.5472Z" fill="white"/>
</svg>
