<svg width="80" height="80" viewBox="0 0 80 80" fill="none" xmlns="http://www.w3.org/2000/svg">
<circle cx="40" cy="40" r="40" fill="#E9F7EA"/>
<path d="M46.25 52.5C46.25 49.0538 49.0537 46.25 52.5 46.25V37.5C52.5 36.837 52.2366 36.2011 51.7678 35.7322C51.2989 35.2634 50.663 35 50 35H30C29.337 35 28.7011 35.2634 28.2322 35.7322C27.7634 36.2011 27.5 36.837 27.5 37.5V38.9137C28.1417 39.0805 28.744 39.3728 29.2721 39.7738C29.8001 40.1749 30.2434 40.6766 30.5763 41.25H36.7681L39.2681 43.75L36.7681 46.25H36.25V47.5H30V47.0513C29.338 47.7997 28.4674 48.3334 27.5 48.5838V55C27.5 55.663 27.7634 56.2989 28.2322 56.7678C28.7011 57.2366 29.337 57.5 30 57.5H48.7663C47.2425 56.3594 46.25 54.5456 46.25 52.5Z" fill="#FAB400"/>
<path d="M45 22.5H35C33.6739 22.5 32.4021 23.0268 31.4645 23.9645C30.5268 24.9021 30 26.1739 30 27.5V35H32.5V27.5C32.5 26.837 32.7634 26.2011 33.2322 25.7322C33.7011 25.2634 34.337 25 35 25H45C45.663 25 46.2989 25.2634 46.7678 25.7322C47.2366 26.2011 47.5 26.837 47.5 27.5V30H50V27.5C50 26.1739 49.4732 24.9021 48.5355 23.9645C47.5979 23.0268 46.3261 22.5 45 22.5Z" fill="#505050"/>
<path d="M36.25 22.5H35C33.6739 22.5 32.4021 23.0268 31.4645 23.9645C30.5268 24.9021 30 26.1739 30 27.5V35H31.25V27.5C31.25 26.1739 31.7768 24.9021 32.7145 23.9645C33.6521 23.0268 34.9239 22.5 36.25 22.5Z" fill="#3C3C3C"/>
<path d="M39.1906 40.0851C38.3094 40.2695 37.5356 40.7845 37.0044 41.487L39.2681 43.7501L37.0113 46.007C37.4542 46.5925 38.0586 47.0358 38.75 47.2826V51.2501C38.75 51.5816 38.8817 51.8996 39.1161 52.134C39.3506 52.3684 39.6685 52.5001 40 52.5001C40.3315 52.5001 40.6495 52.3684 40.8839 52.134C41.1183 51.8996 41.25 51.5816 41.25 51.2501V47.282C42.7056 46.7664 43.75 45.382 43.75 43.7501C43.7497 43.1889 43.6236 42.6349 43.3809 42.1288C43.1383 41.6228 42.7852 41.1776 42.3478 40.826C41.9104 40.4744 41.3997 40.2253 40.8534 40.0971C40.307 39.9689 39.7388 39.9648 39.1906 40.0851Z" fill="#BE7800"/>
<path d="M30 40.4644V37.5C30 36.837 30.2634 36.2011 30.7322 35.7322C31.2011 35.2634 31.837 35 32.5 35H30C29.337 35 28.7011 35.2634 28.2322 35.7322C27.7634 36.2011 27.5 36.837 27.5 37.5V38.9137C28.4697 39.1688 29.3406 39.709 30 40.4644ZM27.5 48.5838V55C27.5 55.663 27.7634 56.2989 28.2322 56.7678C28.7011 57.2366 29.337 57.5 30 57.5H32.5C31.837 57.5 31.2011 57.2366 30.7322 56.7678C30.2634 56.2989 30 55.663 30 55V47.0513C29.338 47.7997 28.4674 48.3334 27.5 48.5838Z" fill="#DC9600"/>
<path d="M29.7819 44.9999H31.25V46.2499H32.5V44.9999H33.75V46.2499H35V44.9999H36.25L37.5 43.7499L36.25 42.4999H29.7819C29.4871 41.6663 28.9071 40.9637 28.1445 40.5163C27.3818 40.069 26.4855 39.9057 25.614 40.0553C24.7425 40.2049 23.952 40.6577 23.3822 41.3338C22.8123 42.0099 22.4999 42.8657 22.5 43.7499C22.499 44.6346 22.811 45.4911 23.3808 46.1679C23.9507 46.8446 24.7415 47.298 25.6135 47.4476C26.4854 47.5973 27.3822 47.4337 28.1451 46.9857C28.908 46.5377 29.4878 45.8343 29.7819 44.9999ZM25 42.4999C25.6894 42.4999 26.25 43.0606 26.25 43.7499C26.25 44.4393 25.6894 44.9999 25 44.9999C24.3106 44.9999 23.75 44.4393 23.75 43.7499C23.75 43.0606 24.3106 42.4999 25 42.4999Z" fill="#64C8F0"/>
<path d="M23.75 43.75C23.7505 42.8634 24.0653 42.0057 24.6385 41.3293C25.2117 40.6528 26.0061 40.2016 26.8806 40.0556C26.6724 40.0193 26.4614 40.0007 26.25 40C25.2554 40 24.3016 40.3951 23.5983 41.0983C22.8951 41.8016 22.5 42.7554 22.5 43.75C22.5 44.7446 22.8951 45.6984 23.5983 46.4017C24.3016 47.1049 25.2554 47.5 26.25 47.5C26.4614 47.4993 26.6724 47.4807 26.8806 47.4444C26.0061 47.2984 25.2117 46.8472 24.6385 46.1707C24.0653 45.4943 23.7505 44.6366 23.75 43.75Z" fill="#46AAD2"/>
<path d="M52.5 57.5C55.2614 57.5 57.5 55.2614 57.5 52.5C57.5 49.7386 55.2614 47.5 52.5 47.5C49.7386 47.5 47.5 49.7386 47.5 52.5C47.5 55.2614 49.7386 57.5 52.5 57.5Z" fill="#3CC8B4"/>
<path d="M48.7394 52.5C48.7394 49.9488 50.6513 47.8481 53.12 47.5425C52.9144 47.5154 52.7074 47.5012 52.5 47.5C51.1739 47.5 49.9021 48.0268 48.9645 48.9645C48.0268 49.9021 47.5 51.1739 47.5 52.5C47.5 53.8261 48.0268 55.0979 48.9645 56.0355C49.9021 56.9732 51.1739 57.5 52.5 57.5C52.71 57.5 52.9163 57.4831 53.1194 57.4575C50.6513 57.1519 48.7394 55.0512 48.7394 52.5Z" fill="#1EAA96"/>
<path d="M55.625 51.25L51.875 55L49.375 52.5L50.625 51.25L51.875 52.5L54.375 50L55.625 51.25Z" fill="#F0F0F0"/>
</svg>
