<svg width="165" height="46" viewBox="0 0 165 46" fill="none" xmlns="http://www.w3.org/2000/svg">
<path d="M158.889 46H6.11111C2.75153 46 0 43.4111 0 40.25V5.75C0 2.58894 2.75153 9.53674e-07 6.11111 9.53674e-07H158.889C162.248 9.53674e-07 165 2.58894 165 5.75V40.25C165 43.4111 162.248 46 158.889 46Z" fill="black"/>
<path d="M158.889 0.921436C161.718 0.921436 164.021 3.08775 164.021 5.75V40.25C164.021 42.9122 161.718 45.0786 158.889 45.0786H6.11111C3.28167 45.0786 0.979305 42.9122 0.979305 40.25V5.75C0.979305 3.08775 3.28167 0.921436 6.11111 0.921436H158.889ZM158.889 9.53674e-07H6.11111C2.75153 9.53674e-07 0 2.58894 0 5.75V40.25C0 43.4111 2.75153 46 6.11111 46H158.889C162.248 46 165 43.4111 165 40.25V5.75C165 2.58894 162.248 9.53674e-07 158.889 9.53674e-07Z" fill="#234167"/>
<path d="M14.8594 10.8691C14.5662 11.1684 14.3965 11.6343 14.3965 12.2377V33.761C14.3965 34.3644 14.5662 34.8303 14.8594 35.1296L14.9318 35.1953L27.3019 23.1393V22.8546L14.9318 10.7986L14.8594 10.8691Z" fill="white"/>
<path d="M32.9179 27.1641L28.7991 23.1434V22.8587L32.9229 18.838L33.0152 18.8903L37.8989 21.5996C39.2926 22.3684 39.2926 23.6336 37.8989 24.4074L33.0152 27.1117L32.9179 27.1641Z" fill="white"/>
<path d="M32.2673 27.858L28.0512 23.7472L15.6086 35.8799C16.0716 36.3544 16.8264 36.4115 17.6849 35.9371L32.2673 27.858Z" fill="white"/>
<path d="M32.2673 18.1393L17.6849 10.0601C16.8264 9.59055 16.0716 9.64773 15.6086 10.1222L28.0512 22.25L32.2673 18.1393Z" fill="white"/>
<path d="M56.5267 12.4993C56.5267 13.3119 56.2772 13.9628 55.7856 14.4482C55.2203 15.0236 54.4842 15.3132 53.582 15.3132C52.7198 15.3132 51.9837 15.0188 51.3798 14.4385C50.7746 13.8497 50.4727 13.127 50.4727 12.2621C50.4727 11.3971 50.7746 10.6745 51.3798 10.0905C51.9837 9.50534 52.7198 9.21094 53.582 9.21094C54.0113 9.21094 54.4205 9.29731 54.8111 9.4579C55.2004 9.6197 55.5173 9.83868 55.7469 10.1088L55.2253 10.6221C54.8248 10.1611 54.2795 9.93357 53.582 9.93357C52.9532 9.93357 52.4079 10.1477 51.945 10.5796C51.4871 11.0127 51.2575 11.5735 51.2575 12.2621C51.2575 12.9506 51.4871 13.5163 51.945 13.9494C52.4079 14.3764 52.9532 14.5954 53.582 14.5954C54.2496 14.5954 54.8111 14.3764 55.254 13.9445C55.546 13.6587 55.7119 13.2645 55.7556 12.7608H53.582V12.0577H56.4818C56.5167 12.2097 56.5267 12.3569 56.5267 12.4993Z" fill="white" stroke="white" strokeWidth="0.119784" strokeMiterlimit="10"/>
<path d="M61.1265 10.0603H58.4027V11.9095H60.8583V12.6126H58.4027V14.4618H61.1265V15.1783H57.6316V9.34375H61.1265V10.0603Z" fill="white" stroke="white" strokeWidth="0.119784" strokeMiterlimit="10"/>
<path d="M64.3737 15.1783H63.6026V10.0603H61.9319V9.34375H66.0457V10.0603H64.3737V15.1783Z" fill="white" stroke="white" strokeWidth="0.119784" strokeMiterlimit="10"/>
<path d="M69.0237 15.1783V9.34375H69.7935V15.1783H69.0237Z" fill="white" stroke="white" strokeWidth="0.119784" strokeMiterlimit="10"/>
<path d="M73.2055 15.1783H72.4406V10.0603H70.7637V9.34375H74.8825V10.0603H73.2055V15.1783Z" fill="white" stroke="white" strokeWidth="0.119784" strokeMiterlimit="10"/>
<path d="M82.6705 14.4287C82.0803 15.0188 81.3491 15.3132 80.4769 15.3132C79.5998 15.3132 78.8686 15.0188 78.2784 14.4287C77.6895 13.8399 77.3962 13.1173 77.3962 12.2621C77.3962 11.4068 77.6895 10.6842 78.2784 10.0954C78.8686 9.50534 79.5998 9.21094 80.4769 9.21094C81.3441 9.21094 82.0753 9.50534 82.6655 10.1002C83.2594 10.6939 83.5526 11.4117 83.5526 12.2621C83.5526 13.1173 83.2594 13.8399 82.6705 14.4287ZM78.8486 13.9397C79.2928 14.3764 79.8331 14.5954 80.4769 14.5954C81.1158 14.5954 81.661 14.3764 82.1002 13.9397C82.5432 13.5029 82.7678 12.9421 82.7678 12.2621C82.7678 11.582 82.5432 11.0212 82.1002 10.5844C81.661 10.1477 81.1158 9.9287 80.4769 9.9287C79.8331 9.9287 79.2928 10.1477 78.8486 10.5844C78.4057 11.0212 78.1811 11.582 78.1811 12.2621C78.1811 12.9421 78.4057 13.5029 78.8486 13.9397Z" fill="white" stroke="white" strokeWidth="0.119784" strokeMiterlimit="10"/>
<path d="M84.634 15.1783V9.34375H85.5698L88.4796 13.8815H88.5133L88.4796 12.7598V9.34375H89.2495V15.1783H88.4459L85.3989 10.4167H85.3652L85.3989 11.5433V15.1783H84.634Z" fill="white" stroke="white" strokeWidth="0.119784" strokeMiterlimit="10"/>
<path d="M77.2063 24.7079C74.8618 24.7079 72.9465 26.4476 72.9465 28.8478C72.9465 31.2286 74.8618 32.9866 77.2063 32.9866C79.5558 32.9866 81.4711 31.2286 81.4711 28.8478C81.4711 26.4476 79.5558 24.7079 77.2063 24.7079ZM77.2063 31.3564C75.9199 31.3564 74.8131 30.3211 74.8131 28.8478C74.8131 27.3551 75.9199 26.3381 77.2063 26.3381C78.4927 26.3381 79.6045 27.3551 79.6045 28.8478C79.6045 30.3211 78.4927 31.3564 77.2063 31.3564ZM67.9118 24.7079C65.5623 24.7079 63.652 26.4476 63.652 28.8478C63.652 31.2286 65.5623 32.9866 67.9118 32.9866C70.2601 32.9866 72.1716 31.2286 72.1716 28.8478C72.1716 26.4476 70.2601 24.7079 67.9118 24.7079ZM67.9118 31.3564C66.6242 31.3564 65.5137 30.3211 65.5137 28.8478C65.5137 27.3551 66.6242 26.3381 67.9118 26.3381C69.1983 26.3381 70.305 27.3551 70.305 28.8478C70.305 30.3211 69.1983 31.3564 67.9118 31.3564ZM56.8518 25.9768V27.7359H61.1603C61.0343 28.7189 60.6974 29.4415 60.1808 29.9452C59.5519 30.5535 58.5725 31.2286 56.8518 31.2286C54.2004 31.2286 52.1241 29.1423 52.1241 26.5571C52.1241 23.9719 54.2004 21.8855 56.8518 21.8855C58.2855 21.8855 59.3286 22.4317 60.0985 23.1398L61.3699 21.9001C60.2931 20.8977 58.8607 20.1276 56.8518 20.1276C53.2159 20.1276 50.1602 23.012 50.1602 26.5571C50.1602 30.1021 53.2159 32.9866 56.8518 32.9866C58.817 32.9866 60.2931 32.3588 61.4535 31.1812C62.6426 30.0218 63.0132 28.3916 63.0132 27.0753C63.0132 26.6666 62.9783 26.2907 62.9159 25.9768H56.8518ZM102.078 27.3405C101.727 26.4147 100.645 24.7079 98.4417 24.7079C96.2581 24.7079 94.4402 26.3855 94.4402 28.8478C94.4402 31.1666 96.2394 32.9866 98.6513 32.9866C100.602 32.9866 101.727 31.8272 102.19 31.152L100.743 30.2116C100.26 30.9002 99.6021 31.3564 98.6513 31.3564C97.7068 31.3564 97.0292 30.9342 96.595 30.1021L102.274 27.8113L102.078 27.3405ZM96.2881 28.7189C96.2394 27.1228 97.5595 26.3053 98.5053 26.3053C99.2465 26.3053 99.8753 26.6666 100.085 27.1836L96.2881 28.7189ZM91.6727 32.7347H93.5393V20.5692H91.6727V32.7347ZM88.6157 25.6301H88.5533C88.1341 25.1459 87.3343 24.7079 86.3211 24.7079C84.1949 24.7079 82.2509 26.5279 82.2509 28.8612C82.2509 31.1812 84.1949 32.9866 86.3211 32.9866C87.3343 32.9866 88.1341 32.5449 88.5533 32.0462H88.6157V32.6398C88.6157 34.2226 87.7485 35.0729 86.3498 35.0729C85.2093 35.0729 84.5019 34.27 84.2099 33.5948L82.5866 34.2554C83.0545 35.3528 84.2935 36.7031 86.3498 36.7031C88.5383 36.7031 90.385 35.4476 90.385 32.3929V24.9597H88.6157V25.6301ZM86.4808 31.3564C85.1944 31.3564 84.1176 30.3065 84.1176 28.8612C84.1176 27.4026 85.1944 26.3381 86.4808 26.3381C87.7485 26.3381 88.748 27.4026 88.748 28.8612C88.748 30.3065 87.7485 31.3564 86.4808 31.3564ZM110.817 20.5692H106.352V32.7347H108.214V28.1252H110.817C112.884 28.1252 114.912 26.6666 114.912 24.3466C114.912 22.0279 112.879 20.5692 110.817 20.5692ZM110.865 26.433H108.214V22.2614H110.865C112.255 22.2614 113.049 23.3867 113.049 24.3466C113.049 25.2882 112.255 26.433 110.865 26.433ZM122.373 24.6848C121.028 24.6848 119.63 25.2639 119.054 26.5473L120.706 27.2225C121.062 26.5473 121.716 26.3284 122.407 26.3284C123.373 26.3284 124.352 26.8941 124.367 27.8929V28.0206C124.03 27.8308 123.309 27.5498 122.422 27.5498C120.643 27.5498 118.83 28.5048 118.83 30.287C118.83 31.9172 120.287 32.9671 121.926 32.9671C123.178 32.9671 123.87 32.416 124.304 31.7749H124.367V32.7153H126.165V28.0486C126.165 25.8916 124.513 24.6848 122.373 24.6848ZM122.149 31.3515C121.54 31.3515 120.691 31.0571 120.691 30.3211C120.691 29.3795 121.75 29.0182 122.665 29.0182C123.485 29.0182 123.87 29.1946 124.367 29.4269C124.221 30.5535 123.227 31.3515 122.149 31.3515ZM132.716 24.9512L130.576 30.225H130.513L128.3 24.9512H126.293L129.617 32.3211L127.72 36.4221H129.665L134.787 24.9512H132.716ZM115.935 32.7347H117.802V20.5692H115.935V32.7347Z" fill="white"/>
</svg>
