<svg width="80" height="80" viewBox="0 0 80 80" fill="none" xmlns="http://www.w3.org/2000/svg">
<path d="M70.799 40.2585C70.799 43.3401 65.278 45.5112 64.3752 48.292C63.4388 51.1741 66.597 56.1698 64.8506 58.5679C63.088 60.991 57.3494 59.5224 54.9263 61.2859C52.5274 63.0314 52.1611 68.9514 49.2798 69.8843C46.499 70.7872 42.7346 66.242 39.6495 66.242C36.5644 66.242 32.8035 70.7872 30.0193 69.8843C27.1371 68.948 26.7708 63.0279 24.3718 61.2859C21.9497 59.5232 16.2111 60.9918 14.4475 58.5688C12.7021 56.1698 15.8594 51.1742 14.9239 48.2928C14.021 45.5121 8.5 43.341 8.5 40.2593C8.5 37.1776 14.021 35.0065 14.9239 32.2258C15.8594 29.3445 12.7021 24.3488 14.4475 21.9498C16.2111 19.5268 21.9497 20.9954 24.3727 19.2327C26.7708 17.4872 27.1371 11.5664 30.0193 10.6343C32.8 9.73146 36.5644 14.2766 39.6495 14.2766C42.7346 14.2766 46.4956 9.73146 49.2798 10.6343C52.1611 11.5698 52.5282 17.4907 54.9263 19.2327C57.3494 20.9963 63.088 19.5276 64.8515 21.9498C66.597 24.3488 63.4388 29.3445 64.3752 32.2258C65.278 35.0057 70.799 37.1768 70.799 40.2585Z" fill="#2086A5"/>
<path d="M36.9278 50.8541C36.4762 50.8547 36.0289 50.7661 35.6116 50.5933C35.1943 50.4205 34.8152 50.167 34.4962 49.8472L26.8281 42.1792C26.183 41.5343 25.8205 40.6595 25.8203 39.7473C25.8202 38.8351 26.1824 37.9602 26.8273 37.315C27.4722 36.6699 28.347 36.3074 29.2592 36.3072C30.1714 36.3071 31.0463 36.6693 31.6914 37.3142L36.9278 42.5498L47.6114 31.8671C48.2564 31.2219 49.1313 30.8595 50.0436 30.8594C50.9559 30.8593 51.8308 31.2216 52.476 31.8666C53.1211 32.5117 53.4836 33.3866 53.4836 34.2988C53.4837 35.2111 53.1214 36.0861 52.4764 36.7312L39.3603 49.8472C39.0412 50.167 38.662 50.4206 38.2446 50.5934C37.8271 50.7662 37.3796 50.8548 36.9278 50.8541Z" fill="#F7D6BF"/>
<path d="M14.6435 54.0503C14.9817 54.0498 15.3098 53.9354 15.575 53.7256C15.8402 53.5158 16.027 53.2228 16.1053 52.8938C16.1775 52.5886 16.248 52.2842 16.3108 51.985C16.3513 51.7915 16.3533 51.592 16.3166 51.3978C16.28 51.2036 16.2055 51.0186 16.0973 50.8532C15.9892 50.6878 15.8495 50.5453 15.6863 50.4339C15.5231 50.3224 15.3396 50.2443 15.1461 50.2038C14.9527 50.1633 14.7532 50.1613 14.559 50.1979C14.3648 50.2346 14.1797 50.3091 14.0143 50.4172C13.8489 50.5254 13.7065 50.665 13.595 50.8282C13.4836 50.9915 13.4054 51.175 13.365 51.3684C13.3062 51.6459 13.2437 51.9225 13.1775 52.1982C13.1318 52.3905 13.1244 52.5899 13.1559 52.7851C13.1873 52.9802 13.2569 53.1673 13.3608 53.3355C13.4646 53.5037 13.6006 53.6498 13.7609 53.7653C13.9213 53.8809 14.1029 53.9637 14.2953 54.009C14.4093 54.0366 14.5262 54.0504 14.6435 54.0503Z" fill="#172956"/>
<path d="M68.4203 34.5785C67.2672 33.6043 66.0755 32.6009 65.8038 31.7617C65.5089 30.8528 65.8898 29.2836 66.2552 27.7677C66.8304 25.3902 67.4254 22.9328 66.066 21.0609C64.6903 19.1753 62.042 18.9749 59.7032 18.7987C58.1555 18.6817 56.5639 18.5614 55.8098 18.0128C55.0747 17.4771 54.4745 16.0111 53.8958 14.5923C53.0016 12.4049 51.9887 9.92595 49.7428 9.19681C47.5777 8.49345 45.4436 9.80557 43.3851 11.0764C42.0369 11.9053 40.6422 12.7643 39.6508 12.7643C38.6594 12.7643 37.2647 11.9044 35.9156 11.0764C33.852 9.80557 31.7231 8.49689 29.5588 9.19681C27.3121 9.92595 26.3 12.404 25.4067 14.5915C24.8263 16.0102 24.2278 17.4771 23.4918 18.0128C22.7377 18.5614 21.1418 18.6817 19.5984 18.7987C17.2596 18.9706 14.6113 19.1753 13.2356 21.0618C11.8762 22.9293 12.4712 25.3868 13.0464 27.7685C13.4127 29.2844 13.7928 30.8537 13.4978 31.7625C13.2261 32.5983 12.0361 33.606 10.8822 34.5794C9.0619 36.1168 7 37.8588 7 40.2603C7 42.6619 9.06362 44.4039 10.8813 45.9422C11.6671 46.5578 12.3939 47.2452 13.0524 47.9955C13.3021 48.3004 13.6613 48.4951 14.053 48.538C14.4447 48.5809 14.8376 48.4684 15.1472 48.2247C15.4569 47.981 15.6586 47.6256 15.709 47.2349C15.7595 46.8441 15.6546 46.4491 15.417 46.1348C14.6361 45.2208 13.7676 44.3857 12.8237 43.6412C11.5047 42.5234 10.0094 41.2629 10.0094 40.2586C10.0094 39.2543 11.5047 37.9904 12.8237 36.876C14.2983 35.6301 15.8237 34.342 16.3602 32.6894C16.9183 30.9697 16.4368 28.9826 15.9716 27.0592C15.5769 25.4255 15.129 23.5777 15.6689 22.8348C16.2227 22.0747 18.1367 21.9302 19.8246 21.803C21.7876 21.6542 23.8177 21.502 25.2622 20.4496C26.6895 19.4109 27.4539 17.5416 28.1917 15.7342C28.8383 14.1529 29.5674 12.3602 30.4892 12.0618C31.3249 11.7935 32.9277 12.7729 34.3387 13.6422C36.0438 14.6921 37.8073 15.7772 39.6508 15.7772C41.4943 15.7772 43.2553 14.6964 44.9629 13.6422C46.3731 12.7729 47.9663 11.7918 48.8133 12.0618C49.7307 12.3602 50.4633 14.1529 51.1099 15.7342C51.8485 17.5399 52.6121 19.4109 54.0394 20.4496C55.4839 21.502 57.514 21.6533 59.4771 21.803C61.1649 21.9311 63.0789 22.0755 63.6327 22.8348C64.1727 23.5785 63.7255 25.4272 63.33 27.06C62.8648 28.9835 62.3842 30.9723 62.9414 32.6903C63.4779 34.3429 65.005 35.6309 66.4779 36.8769C67.7969 37.9947 69.2922 39.2543 69.2922 40.2595C69.2922 41.2646 67.7969 42.5277 66.477 43.643C65.0024 44.8889 63.4779 46.1769 62.9414 47.8287C62.3833 49.5484 62.8648 51.5363 63.33 53.4606C63.7247 55.0943 64.1727 56.9413 63.6318 57.6842C63.0781 58.4443 61.1641 58.5887 59.4753 58.716C57.5132 58.8647 55.4839 59.0169 54.0394 60.0685C52.6112 61.1072 51.8477 62.9774 51.1091 64.7848C50.4633 66.366 49.7333 68.1579 48.8124 68.4572C47.9741 68.7254 46.3739 67.7452 44.9638 66.8768C43.2553 65.8269 41.4943 64.7392 39.6508 64.7392C37.8073 64.7392 36.0395 65.8243 34.3378 66.875C32.9277 67.7435 31.3284 68.7229 30.4883 68.4554C29.57 68.1562 28.8383 66.3643 28.1917 64.7831C27.4539 62.9774 26.6895 61.1055 25.2622 60.0668C23.8177 59.0152 21.7876 58.863 19.8246 58.7134C18.1367 58.5853 16.2227 58.4417 15.6681 57.6816C15.5671 57.5334 15.4997 57.365 15.4703 57.1881C15.3929 56.7965 15.1631 56.4517 14.8315 56.2296C14.4999 56.0075 14.0936 55.9262 13.702 56.0036C13.3105 56.081 12.9657 56.3108 12.7436 56.6425C12.5215 56.9741 12.4402 57.3803 12.5176 57.7719C12.631 58.378 12.8761 58.9518 13.2356 59.4529C14.6113 61.3394 17.2596 61.5397 19.5984 61.716C21.1461 61.8329 22.7386 61.9542 23.4926 62.5019C24.2278 63.0376 24.8271 64.5036 25.4067 65.9232C26.3009 68.1106 27.3129 70.5887 29.5597 71.3187C29.9637 71.45 30.386 71.5164 30.8108 71.5156C32.5442 71.5156 34.2501 70.4632 35.9165 69.44C37.2656 68.6093 38.6603 67.7504 39.6517 67.7504C40.6431 67.7504 42.0377 68.6102 43.3868 69.44C45.4504 70.7082 47.5811 72.0195 49.7428 71.3187C51.9895 70.5887 53.0024 68.1106 53.8958 65.9232C54.4753 64.5045 55.0747 63.0376 55.8107 62.5019C56.5639 61.9542 58.1598 61.8338 59.7023 61.7169C62.042 61.5449 64.6937 61.3402 66.0652 59.4537C67.4246 57.5853 66.8296 55.1287 66.2552 52.747C65.888 51.2302 65.5089 49.6619 65.8038 48.753C66.0755 47.9172 67.2655 46.9095 68.4194 45.9362C70.2388 44.3988 72.3016 42.6567 72.3016 40.2543C72.3016 37.8519 70.2388 36.1159 68.4203 34.5785Z" fill="#172956"/>
<path d="M46.9621 40.1148C46.688 40.3985 46.5362 40.7786 46.5396 41.1731C46.5429 41.5677 46.7011 41.9451 46.98 42.2242C47.259 42.5032 47.6363 42.6615 48.0309 42.665C48.4254 42.6685 48.8055 42.517 49.0894 42.2429L53.5382 37.7941C54.0029 37.3362 54.3724 36.7909 54.6254 36.1896C54.8784 35.5883 55.0099 34.9428 55.0123 34.2904C55.0147 33.638 54.888 32.9916 54.6394 32.3885C54.3909 31.7853 54.0254 31.2373 53.5641 30.776C53.1027 30.3147 52.5547 29.9493 51.9515 29.7008C51.3483 29.4523 50.7018 29.3257 50.0495 29.3282C49.3971 29.3306 48.7516 29.4622 48.1503 29.7153C47.549 29.9684 47.0038 30.3379 46.546 30.8027L36.9261 40.4226L32.7541 36.2507C32.2948 35.7916 31.7495 35.4274 31.1494 35.179C30.5493 34.9306 29.9062 34.8029 29.2568 34.803C28.6073 34.8032 27.9643 34.9313 27.3643 35.18C26.7643 35.4286 26.2193 35.7931 25.7601 36.2524C25.301 36.7117 24.9369 37.257 24.6885 37.8571C24.4401 38.4572 24.3123 39.1003 24.3125 39.7497C24.3127 40.3992 24.4407 41.0422 24.6894 41.6422C24.9381 42.2421 25.3025 42.7872 25.7619 43.2464L33.4299 50.9144C34.3573 51.8415 35.6148 52.3623 36.9261 52.3623C38.2373 52.3623 39.4949 51.8415 40.4222 50.9144L45.0946 46.242C45.3766 45.96 45.5351 45.5774 45.5351 45.1784C45.5351 44.7795 45.3766 44.3969 45.0946 44.1148C44.8125 43.8327 44.4299 43.6742 44.0309 43.6742C43.632 43.6742 43.2494 43.8327 42.9673 44.1148L38.2941 48.7863C37.9259 49.139 37.4358 49.3358 36.9261 49.3358C36.4163 49.3358 35.9262 49.139 35.558 48.7863L27.8891 41.1131C27.5268 40.7503 27.3233 40.2586 27.3233 39.7459C27.3233 39.2333 27.5268 38.7415 27.8891 38.3788C28.2572 38.0261 28.7473 37.8293 29.2571 37.8293C29.7669 37.8293 30.257 38.0261 30.6251 38.3788L35.8598 43.6144C36.142 43.8963 36.5246 44.0547 36.9235 44.0547C37.3224 44.0547 37.7049 43.8963 37.9871 43.6144L48.6715 32.9282C48.8499 32.7434 49.0634 32.596 49.2994 32.4946C49.5354 32.3932 49.7893 32.3397 50.0462 32.3375C50.3031 32.3352 50.5578 32.3841 50.7956 32.4814C51.0334 32.5786 51.2494 32.7222 51.4311 32.9038C51.6127 33.0854 51.7564 33.3014 51.8538 33.5392C51.9511 33.7769 52.0001 34.0317 51.9979 34.2886C51.9957 34.5454 51.9423 34.7993 51.841 35.0354C51.7396 35.2714 51.5923 35.4849 51.4075 35.6634L46.9621 40.1148Z" fill="#172956"/>
</svg>
