<svg width="64" height="64" viewBox="0 0 64 64" fill="none" xmlns="http://www.w3.org/2000/svg">
<path d="M46.8008 34.5C55.0851 34.5 61.8008 27.7843 61.8008 19.5C61.8008 11.2157 55.0851 4.5 46.8008 4.5C38.5165 4.5 31.8008 11.2157 31.8008 19.5C31.8008 27.7843 38.5165 34.5 46.8008 34.5Z" fill="#689F38" stroke="#37474F" stroke-miterlimit="10" stroke-linecap="round" stroke-linejoin="round"/>
<path d="M47.1992 63.5H46.1992C44.7992 63.5 43.6992 62.4 43.6992 61V30.5H49.6992V61C49.7992 62.4 48.5992 63.5 47.1992 63.5Z" fill="#78909C" stroke="#37474F" stroke-miterlimit="10" stroke-linecap="round" stroke-linejoin="round"/>
<path d="M19.1992 58.5H24.1992C25.5992 58.5 26.6992 57.4 26.6992 56V43C26.6992 41.6 25.5992 40.5 24.1992 40.5H19.1992C17.7992 40.5 16.6992 41.6 16.6992 43V56C16.7992 57.3 17.8992 58.5 19.1992 58.5Z" fill="#455A64" stroke="#37474F" stroke-miterlimit="10" stroke-linecap="round" stroke-linejoin="round"/>
<path d="M56.1992 55C55.7992 55.3 55.2992 55.5 54.6992 55.5H36.7992C34.7992 55.5 32.7992 55.1 30.8992 54.3L26.6992 52.5V56.5L30.8992 58.3C32.7992 59.1 34.7992 59.5 36.7992 59.5H54.6992C56.0992 59.5 57.1992 58.4 57.1992 57C57.1992 56.2 56.7992 55.5 56.1992 55Z" fill="#B0BEC5" stroke="#37474F" stroke-miterlimit="10" stroke-linecap="round" stroke-linejoin="round"/>
<path d="M57.2008 43C57.2008 41.6 56.1008 40.5 54.7008 40.5C56.2008 40.5 57.3008 39.2 57.2008 37.7C57.1008 36.4 55.9008 35.5 54.6008 35.5H43.7008V33C43.7008 31.6 42.6008 30.5 41.2008 30.5H40.8008C39.5008 30.5 38.2008 31 37.3008 32L35.8008 33.5C34.5008 34.8 32.9008 35.9 31.1008 36.7L26.8008 38.6V52.6L31.0008 54.4C32.9008 55.2 34.9008 55.6 36.9008 55.6H54.7008C56.0008 55.6 57.2008 54.7 57.3008 53.4C57.4008 51.9 56.3008 50.6 54.8008 50.6C56.2008 50.6 57.3008 49.5 57.3008 48.1C57.3008 46.7 56.2008 45.6 54.8008 45.6C56.1008 45.5 57.2008 44.4 57.2008 43Z" fill="#ECEFF1" stroke="#37474F" stroke-miterlimit="10" stroke-linecap="round" stroke-linejoin="round"/>
<path d="M28.6992 39.8L31.7992 38.5C33.7992 37.6 35.5992 36.4 37.0992 34.9L38.5992 33.4C39.1992 32.8 39.8992 32.5 40.6992 32.5" stroke="white" stroke-miterlimit="10" stroke-linecap="round" stroke-linejoin="round"/>
<path d="M19.1992 54.5H24.1992C25.5992 54.5 26.6992 53.4 26.6992 52V39C26.6992 37.6 25.5992 36.5 24.1992 36.5H19.1992C17.7992 36.5 16.6992 37.6 16.6992 39V52C16.7992 53.3 17.8992 54.5 19.1992 54.5Z" fill="#78909C" stroke="#37474F" stroke-miterlimit="10" stroke-linecap="round" stroke-linejoin="round"/>
<path d="M54.8008 40.5H51.8008M54.8008 45.5H51.8008M54.8008 50.5H51.8008" stroke="#37474F" stroke-miterlimit="10" stroke-linecap="round" stroke-linejoin="round"/>
<path d="M21.8008 42.5C22.9054 42.5 23.8008 41.6046 23.8008 40.5C23.8008 39.3954 22.9054 38.5 21.8008 38.5C20.6962 38.5 19.8008 39.3954 19.8008 40.5C19.8008 41.6046 20.6962 42.5 21.8008 42.5Z" fill="#26C6DA" stroke="#37474F" stroke-miterlimit="10" stroke-linecap="round" stroke-linejoin="round"/>
<path d="M46.8008 30.5C55.0851 30.5 61.8008 23.7843 61.8008 15.5C61.8008 7.21573 55.0851 0.5 46.8008 0.5C38.5165 0.5 31.8008 7.21573 31.8008 15.5C31.8008 23.7843 38.5165 30.5 46.8008 30.5Z" fill="#9CCC65" stroke="#37474F" stroke-miterlimit="10" stroke-linecap="round" stroke-linejoin="round"/>
<path d="M33.8008 15.5C33.8008 8.3 39.6008 2.5 46.8008 2.5" stroke="#C5E1A5" stroke-miterlimit="10" stroke-linecap="round" stroke-linejoin="round"/>
<path d="M38.0984 16.7L42.9984 21.6C43.5984 22.2 44.4984 22.2 45.0984 21.6L55.3984 11.3C55.9984 10.7 55.9984 9.8 55.3984 9.2C54.7984 8.6 53.8984 8.6 53.2984 9.2L44.0984 18.4L40.1984 14.5C39.5984 13.9 38.6984 13.9 38.0984 14.5C37.4984 15.2 37.4984 16.2 38.0984 16.7Z" fill="#ECEFF1" stroke="#37474F" stroke-miterlimit="10" stroke-linecap="round" stroke-linejoin="round"/>
<path d="M4.7988 56.5H16.7988V42.5H4.7988C3.3988 42.5 2.2988 43.6 2.2988 45V54C2.1988 55.4 3.3988 56.5 4.7988 56.5Z" fill="#0097A7" stroke="#37474F" stroke-miterlimit="10" stroke-linecap="round" stroke-linejoin="round"/>
<path d="M4.7988 52.5H16.7988V38.5H4.7988C3.3988 38.5 2.2988 39.6 2.2988 41V50C2.1988 51.3 3.3988 52.5 4.7988 52.5Z" fill="#26C6DA" stroke="#37474F" stroke-miterlimit="10" stroke-linecap="round" stroke-linejoin="round"/>
</svg>
